<svg xmlns="http://www.w3.org/2000/svg" width="375" viewBox="0 0 375 375" height="375" version="1.0"><defs><clipPath id="a"><path d="M 42.027344 132.019531 L 153.027344 132.019531 L 153.027344 243.019531 L 42.027344 243.019531 Z M 42.027344 132.019531"/></clipPath></defs><g clip-path="url(#a)"><path fill="#FFF" d="M 152.058594 198.933594 L 101.738281 157.484375 C 105.140625 154.484375 108.371094 151.300781 111.421875 147.941406 C 112.265625 146.832031 112.828125 145.589844 113.101562 144.222656 C 113.378906 142.855469 113.34375 141.496094 112.996094 140.144531 C 112.609375 138.625 111.914062 137.265625 110.902344 136.0625 C 109.890625 134.863281 108.667969 133.945312 107.234375 133.304688 C 106.457031 132.972656 105.644531 132.757812 104.804688 132.65625 C 103.964844 132.554688 103.128906 132.570312 102.292969 132.703125 C 101.457031 132.835938 100.652344 133.082031 99.886719 133.441406 C 99.121094 133.796875 98.417969 134.253906 97.777344 134.8125 C 97.140625 134.257812 96.4375 133.800781 95.667969 133.441406 C 94.902344 133.085938 94.101562 132.839844 93.265625 132.707031 C 92.429688 132.574219 91.589844 132.558594 90.75 132.660156 C 89.910156 132.761719 89.101562 132.976562 88.320312 133.304688 C 86.886719 133.945312 85.664062 134.863281 84.65625 136.0625 C 83.644531 137.265625 82.945312 138.625 82.558594 140.144531 C 82.210938 141.496094 82.175781 142.855469 82.453125 144.222656 C 82.730469 145.589844 83.292969 146.832031 84.136719 147.941406 C 87.1875 151.300781 90.414062 154.484375 93.820312 157.484375 L 43.5 198.933594 C 43.234375 199.152344 43.019531 199.414062 42.855469 199.71875 C 42.695312 200.023438 42.59375 200.34375 42.5625 200.6875 C 42.527344 201.03125 42.5625 201.367188 42.660156 201.695312 C 42.761719 202.027344 42.917969 202.324219 43.136719 202.589844 C 43.355469 202.855469 43.617188 203.070312 43.921875 203.234375 C 44.226562 203.398438 44.546875 203.496094 44.890625 203.527344 C 45.234375 203.5625 45.570312 203.53125 45.898438 203.429688 C 46.230469 203.332031 46.527344 203.171875 46.792969 202.953125 L 56.363281 195.066406 L 56.363281 240.40625 C 56.359375 240.753906 56.421875 241.085938 56.554688 241.40625 C 56.683594 241.726562 56.871094 242.007812 57.113281 242.253906 C 57.355469 242.496094 57.636719 242.6875 57.957031 242.820312 C 58.277344 242.953125 58.609375 243.019531 58.953125 243.019531 L 84.113281 243.019531 C 84.453125 243.019531 84.785156 242.953125 85.101562 242.820312 C 85.417969 242.6875 85.695312 242.5 85.941406 242.257812 C 86.183594 242.015625 86.367188 241.738281 86.5 241.421875 C 86.632812 241.105469 86.699219 240.773438 86.699219 240.433594 L 86.699219 218.484375 C 86.699219 217.753906 86.769531 217.035156 86.910156 216.320312 C 87.054688 215.609375 87.261719 214.914062 87.542969 214.242188 C 87.820312 213.570312 88.160156 212.933594 88.566406 212.328125 C 88.96875 211.722656 89.429688 211.164062 89.945312 210.648438 C 90.457031 210.132812 91.019531 209.675781 91.621094 209.269531 C 92.226562 208.867188 92.867188 208.523438 93.539062 208.246094 C 94.210938 207.96875 94.902344 207.757812 95.617188 207.617188 C 96.332031 207.472656 97.050781 207.402344 97.777344 207.402344 C 98.507812 207.402344 99.226562 207.472656 99.941406 207.617188 C 100.652344 207.757812 101.347656 207.96875 102.019531 208.246094 C 102.691406 208.523438 103.328125 208.867188 103.933594 209.269531 C 104.539062 209.675781 105.097656 210.132812 105.613281 210.648438 C 106.128906 211.164062 106.585938 211.722656 106.992188 212.328125 C 107.394531 212.933594 107.738281 213.570312 108.015625 214.242188 C 108.292969 214.914062 108.503906 215.609375 108.644531 216.320312 C 108.789062 217.035156 108.859375 217.753906 108.859375 218.484375 L 108.859375 240.40625 C 108.859375 240.75 108.925781 241.078125 109.058594 241.394531 C 109.1875 241.710938 109.375 241.992188 109.617188 242.234375 C 109.859375 242.476562 110.140625 242.664062 110.457031 242.796875 C 110.773438 242.925781 111.101562 242.992188 111.445312 242.992188 L 136.601562 242.992188 C 136.945312 242.992188 137.277344 242.929688 137.59375 242.796875 C 137.910156 242.664062 138.191406 242.480469 138.433594 242.234375 C 138.675781 241.992188 138.863281 241.714844 138.996094 241.398438 C 139.128906 241.082031 139.195312 240.75 139.195312 240.40625 L 139.195312 195.046875 L 148.761719 202.933594 C 149.03125 203.152344 149.328125 203.308594 149.65625 203.410156 C 149.988281 203.507812 150.324219 203.542969 150.664062 203.507812 C 151.007812 203.472656 151.332031 203.375 151.636719 203.214844 C 151.9375 203.050781 152.199219 202.835938 152.417969 202.570312 C 152.636719 202.304688 152.796875 202.003906 152.894531 201.675781 C 152.996094 201.347656 153.027344 201.011719 152.996094 200.667969 C 152.960938 200.324219 152.863281 200.003906 152.699219 199.699219 C 152.539062 199.394531 152.324219 199.132812 152.058594 198.914062 Z M 88.234375 144.777344 C 87.871094 144.289062 87.632812 143.75 87.519531 143.152344 C 87.402344 142.558594 87.425781 141.96875 87.582031 141.378906 C 87.78125 140.628906 88.132812 139.953125 88.640625 139.363281 C 89.148438 138.773438 89.761719 138.320312 90.476562 138.011719 C 93.101562 136.804688 95.273438 139.777344 95.773438 140.019531 C 95.894531 140.164062 96.03125 140.296875 96.183594 140.414062 C 96.332031 140.527344 96.496094 140.628906 96.667969 140.707031 C 96.839844 140.789062 97.019531 140.851562 97.203125 140.890625 C 97.390625 140.933594 97.578125 140.953125 97.769531 140.953125 C 97.957031 140.953125 98.148438 140.933594 98.332031 140.890625 C 98.519531 140.851562 98.695312 140.789062 98.871094 140.707031 C 99.042969 140.628906 99.203125 140.527344 99.355469 140.414062 C 99.503906 140.296875 99.640625 140.164062 99.761719 140.019531 C 99.792969 139.988281 102.488281 136.832031 105.070312 138.011719 C 105.785156 138.320312 106.398438 138.773438 106.90625 139.363281 C 107.414062 139.953125 107.765625 140.628906 107.964844 141.378906 C 108.121094 141.964844 108.144531 142.558594 108.027344 143.152344 C 107.914062 143.75 107.679688 144.289062 107.316406 144.777344 C 104.296875 148.042969 101.117188 151.144531 97.777344 154.089844 C 94.4375 151.148438 91.257812 148.042969 88.234375 144.777344 Z M 134.011719 237.816406 L 114.035156 237.816406 L 114.035156 218.484375 C 114.035156 217.949219 114.011719 217.417969 113.957031 216.890625 C 113.90625 216.359375 113.828125 215.835938 113.722656 215.3125 C 113.617188 214.789062 113.488281 214.273438 113.335938 213.765625 C 113.179688 213.257812 113 212.753906 112.796875 212.265625 C 112.59375 211.773438 112.367188 211.292969 112.113281 210.820312 C 111.863281 210.351562 111.589844 209.898438 111.292969 209.453125 C 111 209.011719 110.679688 208.585938 110.34375 208.171875 C 110.003906 207.761719 109.648438 207.367188 109.273438 206.992188 C 108.894531 206.617188 108.5 206.257812 108.089844 205.921875 C 107.679688 205.582031 107.25 205.265625 106.808594 204.972656 C 106.367188 204.675781 105.910156 204.402344 105.441406 204.152344 C 104.972656 203.902344 104.492188 203.671875 104 203.46875 C 103.507812 203.265625 103.007812 203.085938 102.496094 202.933594 C 101.988281 202.777344 101.472656 202.648438 100.949219 202.546875 C 100.425781 202.441406 99.902344 202.363281 99.371094 202.3125 C 98.84375 202.257812 98.3125 202.234375 97.777344 202.234375 C 97.246094 202.234375 96.714844 202.257812 96.183594 202.3125 C 95.65625 202.363281 95.128906 202.441406 94.609375 202.546875 C 94.085938 202.648438 93.570312 202.777344 93.058594 202.933594 C 92.550781 203.085938 92.050781 203.265625 91.558594 203.46875 C 91.066406 203.671875 90.585938 203.902344 90.117188 204.152344 C 89.648438 204.402344 89.191406 204.675781 88.75 204.972656 C 88.304688 205.265625 87.878906 205.582031 87.46875 205.921875 C 87.054688 206.257812 86.660156 206.617188 86.285156 206.992188 C 85.910156 207.367188 85.550781 207.761719 85.214844 208.171875 C 84.875 208.585938 84.558594 209.011719 84.261719 209.453125 C 83.96875 209.898438 83.695312 210.351562 83.441406 210.820312 C 83.191406 211.292969 82.964844 211.773438 82.761719 212.265625 C 82.554688 212.753906 82.378906 213.257812 82.222656 213.765625 C 82.066406 214.273438 81.9375 214.789062 81.835938 215.3125 C 81.730469 215.835938 81.652344 216.359375 81.597656 216.890625 C 81.546875 217.417969 81.519531 217.949219 81.519531 218.484375 L 81.519531 237.816406 L 61.539062 237.816406 L 61.539062 190.785156 L 97.777344 160.929688 L 134.015625 190.785156 Z M 134.011719 237.816406"/></g><g fill="#FFDE59"><g><g><path d="M 35.421875 -46.234375 C 36.679688 -44.015625 37.3125 -41.566406 37.3125 -38.890625 L 37.234375 -37.609375 C 37.234375 -35.890625 36.90625 -33.875 36.25 -31.5625 C 36.09375 -30.800781 35.613281 -30.421875 34.8125 -30.421875 L 24.296875 -30.421875 C 23.835938 -30.421875 23.46875 -30.570312 23.1875 -30.875 C 22.914062 -31.175781 22.78125 -31.53125 22.78125 -31.9375 C 22.78125 -32.1875 22.804688 -32.363281 22.859375 -32.46875 L 23.984375 -36.78125 C 24.285156 -38.394531 24.4375 -39.503906 24.4375 -40.109375 C 24.4375 -40.609375 24.363281 -41.035156 24.21875 -41.390625 C 23.863281 -41.992188 23.382812 -42.296875 22.78125 -42.296875 C 21.0625 -42.296875 19.507812 -41.171875 18.125 -38.921875 C 16.738281 -36.679688 15.65625 -33.945312 14.875 -30.71875 C 14.09375 -27.488281 13.703125 -24.488281 13.703125 -21.71875 C 13.703125 -19.195312 13.988281 -16.914062 14.5625 -14.875 C 15.144531 -12.832031 16.269531 -11.65625 17.9375 -11.34375 C 19.75 -11.09375 21.515625 -11.828125 23.234375 -13.546875 C 23.328125 -13.648438 23.679688 -14.050781 24.296875 -14.75 L 25.203125 -16.046875 C 26.109375 -17.359375 27.113281 -18.972656 28.21875 -20.890625 C 28.519531 -21.335938 28.953125 -21.5625 29.515625 -21.5625 C 29.960938 -21.5625 30.335938 -21.410156 30.640625 -21.109375 L 35.1875 -16.34375 C 35.4375 -16.09375 35.5625 -15.765625 35.5625 -15.359375 C 35.5625 -15.003906 35.515625 -14.753906 35.421875 -14.609375 C 33.242188 -10.566406 31.25 -7.664062 29.4375 -5.90625 C 25.5 -1.96875 21.132812 0 16.34375 0 C 14.582031 0 12.84375 -0.25 11.125 -0.75 C 7.539062 -1.707031 4.664062 -4.113281 2.5 -7.96875 C 0.332031 -11.832031 -0.75 -16.414062 -0.75 -21.71875 C -0.75 -31.707031 2.472656 -40.207031 8.921875 -47.21875 C 12.304688 -51 16.75 -52.890625 22.25 -52.890625 C 22.800781 -52.890625 23.632812 -52.84375 24.75 -52.75 C 27.0625 -52.488281 29.125 -51.828125 30.9375 -50.765625 C 32.757812 -49.710938 34.253906 -48.203125 35.421875 -46.234375 Z M 25.421875 -51.90625 C 25.222656 -51.757812 25.125 -51.632812 25.125 -51.53125 C 25.425781 -51.332031 25.628906 -51.234375 25.734375 -51.234375 C 25.773438 -51.234375 25.953125 -51.28125 26.265625 -51.375 C 26.460938 -51.425781 26.6875 -51.453125 26.9375 -51.453125 L 26.640625 -51.6875 C 26.484375 -51.738281 26.28125 -51.765625 26.03125 -51.765625 Z M 26.03125 -50.09375 C 25.925781 -50.289062 25.976562 -50.414062 26.1875 -50.46875 C 26.332031 -50.519531 26.582031 -50.546875 26.9375 -50.546875 C 26.988281 -50.597656 27.085938 -50.722656 27.234375 -50.921875 L 27.703125 -51.078125 C 27.898438 -51.179688 28.050781 -51.28125 28.15625 -51.375 C 28.050781 -51.476562 27.898438 -51.53125 27.703125 -51.53125 C 27.492188 -51.53125 27.363281 -51.554688 27.3125 -51.609375 C 27.21875 -51.503906 27.191406 -51.425781 27.234375 -51.375 C 27.285156 -51.226562 27.285156 -51.128906 27.234375 -51.078125 C 26.984375 -50.972656 26.832031 -50.875 26.78125 -50.78125 C 26.6875 -50.675781 26.5625 -50.625 26.40625 -50.625 C 26.207031 -50.625 26.082031 -50.597656 26.03125 -50.546875 C 25.925781 -50.546875 25.847656 -50.554688 25.796875 -50.578125 C 25.753906 -50.609375 25.707031 -50.625 25.65625 -50.625 C 25.601562 -50.726562 25.601562 -50.800781 25.65625 -50.84375 C 25.65625 -50.894531 25.601562 -50.972656 25.5 -51.078125 C 25.195312 -51.023438 24.945312 -50.898438 24.75 -50.703125 C 25 -50.597656 25.070312 -50.472656 24.96875 -50.328125 L 25.953125 -49.875 L 25.953125 -50.015625 C 25.953125 -50.066406 25.976562 -50.09375 26.03125 -50.09375 Z M 17.40625 -50.78125 C 17.40625 -50.78125 17.390625 -50.789062 17.359375 -50.8125 C 17.335938 -50.832031 17.328125 -50.867188 17.328125 -50.921875 L 17.328125 -51.078125 L 16.1875 -51.078125 C 16.445312 -51.078125 16.625 -51.023438 16.71875 -50.921875 C 16.820312 -50.921875 16.875 -50.875 16.875 -50.78125 L 16.875 -50.703125 L 17.109375 -50.625 C 17.253906 -50.625 17.328125 -50.648438 17.328125 -50.703125 Z M 19.140625 -50.78125 L 19.453125 -51.078125 L 18.765625 -51.078125 L 18.765625 -50.78125 Z M 28.75 -50.625 L 28.75 -50.46875 L 29.140625 -50.46875 L 29.140625 -50.625 Z M 19.75 -49.875 L 20.046875 -50.09375 C 19.847656 -50.144531 19.75 -50.269531 19.75 -50.46875 L 19.296875 -50.46875 C 19.191406 -50.46875 19.140625 -50.421875 19.140625 -50.328125 C 19.140625 -50.222656 19.242188 -50.117188 19.453125 -50.015625 Z M 24.359375 -49.796875 C 24.617188 -49.742188 24.75 -49.664062 24.75 -49.5625 L 24.828125 -49.796875 C 24.921875 -49.890625 24.921875 -49.988281 24.828125 -50.09375 C 24.722656 -50.09375 24.566406 -49.992188 24.359375 -49.796875 Z M 19.59375 -49.40625 C 19.5 -49.507812 19.453125 -49.585938 19.453125 -49.640625 L 19.140625 -49.640625 C 18.992188 -49.484375 18.894531 -49.40625 18.84375 -49.40625 C 18.894531 -49.40625 18.941406 -49.394531 18.984375 -49.375 C 19.035156 -49.351562 19.113281 -49.34375 19.21875 -49.34375 C 19.320312 -49.289062 19.445312 -49.265625 19.59375 -49.265625 Z M 18.765625 -47.671875 L 18.6875 -47.515625 L 18.84375 -47.453125 L 19 -47.515625 Z M 25.203125 -45.78125 C 25.296875 -45.882812 25.34375 -45.984375 25.34375 -46.078125 C 25.25 -46.078125 25.203125 -46.054688 25.203125 -46.015625 Z M 24.296875 -45.09375 L 24.296875 -44.109375 L 24.890625 -44.1875 L 24.890625 -45.09375 Z M 20.4375 -44.046875 L 20.203125 -43.59375 L 19.984375 -43.203125 L 20.4375 -43.203125 C 20.476562 -43.253906 20.523438 -43.316406 20.578125 -43.390625 C 20.628906 -43.472656 20.65625 -43.539062 20.65625 -43.59375 L 20.890625 -44.046875 Z M 28.375 -42.15625 C 28.375 -42.351562 28.171875 -42.453125 27.765625 -42.453125 L 27.703125 -41.625 L 28 -41.390625 L 28.21875 -41.765625 C 28.320312 -41.867188 28.375 -42 28.375 -42.15625 Z M 30.5 -41.3125 L 30.5 -41.46875 L 30.578125 -41.546875 C 30.578125 -41.597656 30.597656 -41.625 30.640625 -41.625 L 30.640625 -41.765625 L 29.8125 -41.765625 L 29.65625 -41.46875 Z M 29.515625 -40.1875 C 29.515625 -39.78125 29.71875 -39.578125 30.125 -39.578125 L 30.5 -39.734375 C 30.644531 -39.773438 30.742188 -39.804688 30.796875 -39.828125 C 30.847656 -39.859375 30.875 -39.875 30.875 -39.875 L 31.171875 -39.953125 L 31.171875 -40.328125 C 31.023438 -40.484375 30.953125 -40.5625 30.953125 -40.5625 L 30.640625 -40.71875 C 30.441406 -40.8125 30.289062 -40.859375 30.1875 -40.859375 C 30.039062 -40.859375 29.90625 -40.769531 29.78125 -40.59375 C 29.65625 -40.414062 29.566406 -40.28125 29.515625 -40.1875 Z M 13.84375 -40.5625 L 13.703125 -40.640625 C 13.597656 -40.640625 13.546875 -40.585938 13.546875 -40.484375 L 13.921875 -40.484375 Z M 28.671875 -39.65625 C 28.722656 -39.800781 28.5 -40.023438 28 -40.328125 L 28.078125 -40.25 C 27.972656 -40.050781 27.859375 -39.9375 27.734375 -39.90625 C 27.609375 -39.882812 27.519531 -39.875 27.46875 -39.875 C 27.414062 -39.820312 27.316406 -39.796875 27.171875 -39.796875 L 26.859375 -39.734375 L 26.859375 -39.421875 C 27.015625 -39.328125 27.164062 -39.28125 27.3125 -39.28125 C 27.414062 -39.226562 27.546875 -39.203125 27.703125 -39.203125 L 28.21875 -39.34375 Z M 31.171875 -39.125 L 30.71875 -38.96875 C 30.570312 -38.96875 30.421875 -39.046875 30.265625 -39.203125 L 30.1875 -39.28125 L 29.96875 -39.28125 C 29.757812 -39.019531 29.65625 -38.765625 29.65625 -38.515625 L 30.125 -38.296875 C 30.425781 -38.191406 30.597656 -38.113281 30.640625 -38.0625 L 30.953125 -38.296875 C 30.953125 -38.492188 30.875 -38.617188 30.71875 -38.671875 L 30.875 -38.75 L 30.875 -38.8125 L 31.09375 -38.8125 C 31.09375 -38.863281 31.117188 -38.898438 31.171875 -38.921875 C 31.222656 -38.953125 31.25 -38.96875 31.25 -38.96875 L 31.40625 -39.125 Z M 11.046875 -38.75 L 11.046875 -38.515625 L 11.28125 -38.515625 L 11.28125 -38.75 Z M 9.609375 -36.859375 C 9.503906 -37.054688 9.453125 -37.207031 9.453125 -37.3125 C 9.453125 -37.707031 9.253906 -38.007812 8.859375 -38.21875 C 8.648438 -38.3125 8.570312 -38.460938 8.625 -38.671875 C 8.320312 -38.460938 8.171875 -38.285156 8.171875 -38.140625 C 8.171875 -38.085938 8.296875 -38.007812 8.546875 -37.90625 C 8.648438 -37.863281 8.828125 -37.84375 9.078125 -37.84375 C 9.023438 -37.6875 8.898438 -37.507812 8.703125 -37.3125 L 8.46875 -36.859375 C 8.46875 -36.648438 8.519531 -36.546875 8.625 -36.546875 L 8.703125 -36.546875 C 8.703125 -36.597656 8.753906 -36.625 8.859375 -36.625 C 9.003906 -36.625 9.101562 -36.597656 9.15625 -36.546875 C 9.15625 -36.546875 9.207031 -36.492188 9.3125 -36.390625 C 9.3125 -36.492188 9.359375 -36.570312 9.453125 -36.625 Z M 10.59375 -37.90625 C 10.59375 -37.957031 10.539062 -38.035156 10.4375 -38.140625 L 10.21875 -38.296875 L 10.0625 -38.21875 C 10.0625 -38.113281 10.007812 -38.0625 9.90625 -38.0625 Z M 10.96875 -38.0625 C 10.96875 -38.0625 10.976562 -38.046875 11 -38.015625 C 11.03125 -37.992188 11.046875 -37.984375 11.046875 -37.984375 Z M 6.578125 -36.859375 C 6.734375 -36.703125 6.882812 -36.625 7.03125 -36.625 L 7.1875 -36.859375 C 6.988281 -37.054688 6.785156 -37.15625 6.578125 -37.15625 Z M 5.375 -36.25 C 5.476562 -36.144531 5.601562 -36.09375 5.75 -36.09375 L 6.125 -36.09375 Z M 6.65625 -35.9375 C 7.113281 -35.9375 7.441406 -35.890625 7.640625 -35.796875 C 7.796875 -35.890625 7.875 -36.039062 7.875 -36.25 L 6.65625 -36.25 Z M 8.921875 -35.796875 L 8.921875 -35.640625 L 9.3125 -35.640625 L 9.3125 -35.796875 Z M 15.515625 -35.5625 L 15.515625 -35.34375 L 15.671875 -35.34375 L 15.671875 -35.5625 Z M 31.625 -35.1875 L 31.5625 -35.1875 L 31.625 -35.03125 L 31.78125 -35.109375 Z M 6.28125 -34.65625 C 6.175781 -34.707031 6.125 -34.757812 6.125 -34.8125 L 5.59375 -34.8125 L 5.59375 -34.65625 C 5.59375 -34.40625 5.742188 -34.203125 6.046875 -34.046875 C 6.253906 -34.203125 6.359375 -34.332031 6.359375 -34.4375 C 6.359375 -34.582031 6.332031 -34.65625 6.28125 -34.65625 Z M 8.625 -33.515625 C 7.914062 -34.078125 7.488281 -34.359375 7.34375 -34.359375 L 6.96875 -34.359375 C 7.113281 -34.304688 7.1875 -34.179688 7.1875 -33.984375 C 7.1875 -33.828125 7.160156 -33.75 7.109375 -33.75 L 6.96875 -33.75 L 6.890625 -33.828125 L 6.734375 -33.828125 L 6.578125 -33.75 C 6.523438 -33.75 6.488281 -33.722656 6.46875 -33.671875 C 6.445312 -33.617188 6.4375 -33.59375 6.4375 -33.59375 L 6.578125 -33.515625 C 6.578125 -33.472656 6.585938 -33.4375 6.609375 -33.40625 C 6.640625 -33.382812 6.65625 -33.375 6.65625 -33.375 C 6.863281 -33.375 7.066406 -33.421875 7.265625 -33.515625 C 7.515625 -33.671875 7.691406 -33.75 7.796875 -33.75 L 8.09375 -33.59375 C 8.09375 -33.539062 8.171875 -33.515625 8.328125 -33.515625 Z M 5.453125 -33.296875 C 5.453125 -33.441406 5.320312 -33.566406 5.0625 -33.671875 C 5.0625 -33.566406 5.113281 -33.476562 5.21875 -33.40625 C 5.320312 -33.332031 5.398438 -33.296875 5.453125 -33.296875 Z M 4.015625 -33.59375 L 4.015625 -33.453125 L 4.390625 -33.453125 L 4.390625 -33.59375 Z M 9.15625 -32.609375 C 9.15625 -32.816406 9.078125 -33.070312 8.921875 -33.375 C 8.773438 -33.070312 8.703125 -32.867188 8.703125 -32.765625 C 8.703125 -32.660156 8.753906 -32.507812 8.859375 -32.3125 L 9.078125 -32.3125 Z M 7.953125 -33 L 7.953125 -32.84375 L 8.546875 -32.765625 L 8.546875 -32.921875 Z M 6.046875 -31.484375 C 6.203125 -31.484375 6.332031 -31.507812 6.4375 -31.5625 L 6.65625 -31.5625 L 6.65625 -32.015625 C 6.457031 -32.015625 6.359375 -32.0625 6.359375 -32.15625 L 6.203125 -31.78125 Z M 3.9375 -31.25 C 4.238281 -31.40625 4.390625 -31.554688 4.390625 -31.703125 L 4.234375 -31.703125 L 4.15625 -31.78125 C 3.800781 -31.675781 3.625 -31.550781 3.625 -31.40625 Z M 6.65625 -31.25 L 6.578125 -30.953125 L 6.96875 -30.953125 L 7.03125 -31.25 Z M 5.453125 -30.265625 L 5.53125 -30.34375 C 5.570312 -30.34375 5.59375 -30.394531 5.59375 -30.5 L 5.53125 -30.640625 L 5.0625 -30.640625 L 5.0625 -30.265625 Z M 5.828125 -28.90625 C 5.722656 -28.957031 5.570312 -28.984375 5.375 -28.984375 L 4.921875 -28.984375 L 5 -28.828125 L 5.0625 -28.609375 C 5.375 -28.609375 5.726562 -28.53125 6.125 -28.375 L 6.125 -28.75 Z M 6.046875 -28.21875 C 5.898438 -28.21875 5.828125 -28.117188 5.828125 -27.921875 L 5.90625 -27.765625 C 5.957031 -27.765625 6.003906 -27.71875 6.046875 -27.625 Z M 8.921875 -26.265625 C 8.972656 -26.460938 9 -26.785156 9 -27.234375 C 9 -27.492188 8.972656 -27.671875 8.921875 -27.765625 C 8.773438 -27.617188 8.703125 -27.421875 8.703125 -27.171875 C 8.703125 -26.960938 8.753906 -26.8125 8.859375 -26.71875 Z M -0.15625 -23.6875 L -0.15625 -23.453125 L -0.234375 -23.234375 C -0.234375 -23.078125 -0.207031 -22.972656 -0.15625 -22.921875 L 0 -22.703125 C 0.25 -22.847656 0.375 -22.972656 0.375 -23.078125 L 0.375 -23.6875 Z M 29.4375 -19.984375 C 29.382812 -19.828125 29.457031 -19.648438 29.65625 -19.453125 C 29.65625 -19.492188 29.707031 -19.566406 29.8125 -19.671875 C 29.863281 -19.722656 29.890625 -19.800781 29.890625 -19.90625 L 29.515625 -20.125 C 29.460938 -20.070312 29.4375 -20.070312 29.4375 -20.125 Z M 2.265625 -14.078125 L 2.046875 -14.21875 L 1.515625 -14.21875 L 1.140625 -14.078125 L 1.140625 -13.765625 L 1.28125 -13.703125 L 1.515625 -13.625 C 1.566406 -13.675781 1.640625 -13.703125 1.734375 -13.703125 Z M 7.484375 -13.25 L 7.484375 -12.640625 L 7.640625 -12.640625 L 7.640625 -13.25 Z M 23 -2.34375 L 23.453125 -3.25 L 23.234375 -3.40625 L 22.78125 -2.421875 Z M 14.828125 -2.125 C 14.523438 -1.96875 14.375 -1.835938 14.375 -1.734375 L 14.984375 -1.734375 L 14.90625 -1.96875 Z M 14.828125 -2.125" transform="translate(164.75 207.086)"/></g></g></g><g fill="#FFDE59"><g><g><path d="M 41.84375 -1.515625 C 41.84375 -1.109375 41.703125 -0.753906 41.421875 -0.453125 C 41.148438 -0.148438 40.785156 0 40.328125 0 L 28.90625 0 C 28 0 27.492188 -0.453125 27.390625 -1.359375 L 26.640625 -10.59375 L 15.203125 -8.328125 L 13.546875 -1.359375 C 13.347656 -0.609375 12.84375 -0.234375 12.03125 -0.234375 L 0.828125 -0.453125 C 0.328125 -0.453125 -0.0546875 -0.640625 -0.328125 -1.015625 C -0.609375 -1.398438 -0.703125 -1.867188 -0.609375 -2.421875 C 0.648438 -7.160156 2.390625 -13.113281 4.609375 -20.28125 C 5.773438 -24.0625 7.316406 -28.375 9.234375 -33.21875 C 10.992188 -37.707031 13.363281 -43.429688 16.34375 -50.390625 C 16.539062 -50.847656 16.921875 -51.15625 17.484375 -51.3125 L 19.0625 -51.609375 C 20.582031 -51.910156 21.742188 -52.113281 22.546875 -52.21875 C 23.003906 -52.3125 23.765625 -52.359375 24.828125 -52.359375 C 25.785156 -52.359375 26.488281 -52.335938 26.9375 -52.296875 C 29.363281 -52.085938 31.304688 -50.34375 32.765625 -47.0625 C 33.222656 -45.851562 33.753906 -44.113281 34.359375 -41.84375 C 35.015625 -39.125 35.617188 -36.347656 36.171875 -33.515625 L 41.84375 -1.8125 Z M 18.15625 -49.03125 L 18.15625 -49.484375 L 17.859375 -49.484375 L 17.859375 -49.03125 Z M 27.3125 -47.0625 L 27.3125 -47.671875 L 27.09375 -47.671875 L 27.09375 -47.0625 Z M 26.71875 -45.78125 C 26.8125 -45.976562 26.859375 -46.179688 26.859375 -46.390625 C 26.609375 -46.390625 26.484375 -46.414062 26.484375 -46.46875 L 26.484375 -46.015625 Z M 17.9375 -46.078125 L 17.9375 -45.09375 C 17.9375 -45.300781 18.0625 -45.609375 18.3125 -46.015625 L 18.078125 -46.015625 Z M 27.921875 -45.859375 C 28.023438 -45.960938 28.101562 -46.015625 28.15625 -46.015625 L 27.3125 -46.078125 L 27.3125 -45.78125 C 27.363281 -45.726562 27.390625 -45.648438 27.390625 -45.546875 L 27.703125 -45.546875 C 27.703125 -45.597656 27.773438 -45.703125 27.921875 -45.859375 Z M 27.3125 -45.546875 L 27.3125 -45.703125 L 27.171875 -46.015625 L 27.171875 -45.78125 Z M 28.75 -45.171875 C 28.550781 -45.171875 28.375 -44.992188 28.21875 -44.640625 L 28.375 -44.5 L 29.359375 -44.5 L 29.65625 -44.640625 C 29.40625 -44.796875 29.28125 -44.945312 29.28125 -45.09375 L 29.4375 -45.328125 C 29.132812 -45.222656 28.90625 -45.171875 28.75 -45.171875 Z M 28.53125 -43.140625 C 28.320312 -43.140625 28.21875 -43.035156 28.21875 -42.828125 C 28.320312 -42.722656 28.453125 -42.671875 28.609375 -42.671875 C 28.648438 -42.671875 28.773438 -42.625 28.984375 -42.53125 C 29.085938 -42.625 29.140625 -42.695312 29.140625 -42.75 L 29.203125 -42.90625 C 28.953125 -43.0625 28.726562 -43.140625 28.53125 -43.140625 Z M 22.40625 -42.453125 L 22.46875 -42.671875 L 22.40625 -42.671875 L 22.25 -42.53125 Z M 23.234375 -41.6875 L 23.609375 -41.6875 C 23.660156 -41.644531 23.710938 -41.632812 23.765625 -41.65625 C 23.816406 -41.675781 23.863281 -41.6875 23.90625 -41.6875 C 23.90625 -41.894531 23.859375 -42.050781 23.765625 -42.15625 C 23.710938 -42.15625 23.660156 -42.140625 23.609375 -42.109375 C 23.554688 -42.085938 23.503906 -42.078125 23.453125 -42.078125 L 23.15625 -42.078125 Z M 29.8125 -40.71875 C 29.8125 -40.664062 29.6875 -40.585938 29.4375 -40.484375 C 29.332031 -40.484375 29.28125 -40.40625 29.28125 -40.25 C 29.28125 -40.207031 29.332031 -40.132812 29.4375 -40.03125 L 29.890625 -40.03125 C 30.085938 -40.132812 30.1875 -40.234375 30.1875 -40.328125 C 30.1875 -40.585938 30.0625 -40.71875 29.8125 -40.71875 Z M 13.171875 -37.765625 C 13.222656 -37.859375 13.160156 -37.828125 12.984375 -37.671875 C 12.804688 -37.523438 12.71875 -37.425781 12.71875 -37.375 C 12.71875 -37.226562 12.78125 -37.050781 12.90625 -36.84375 C 13.03125 -36.644531 13.117188 -36.546875 13.171875 -36.546875 C 13.222656 -36.703125 13.25 -36.90625 13.25 -37.15625 C 13.25 -37.457031 13.222656 -37.660156 13.171875 -37.765625 Z M 18.390625 -36.625 C 18.390625 -36.625 18.398438 -36.632812 18.421875 -36.65625 C 18.453125 -36.6875 18.492188 -36.703125 18.546875 -36.703125 C 18.691406 -36.648438 18.789062 -36.675781 18.84375 -36.78125 L 18.46875 -36.921875 C 18.414062 -36.921875 18.390625 -36.875 18.390625 -36.78125 Z M 13.09375 -34.65625 L 13.390625 -34.65625 L 13.390625 -35.5625 L 13.09375 -35.484375 Z M 21.9375 -35.1875 C 21.539062 -35.1875 21.238281 -35.007812 21.03125 -34.65625 C 21.132812 -34.300781 21.257812 -34.097656 21.40625 -34.046875 C 21.5625 -34.003906 21.789062 -34.054688 22.09375 -34.203125 L 22.328125 -34.8125 L 22.25 -34.953125 C 22.25 -35.003906 22.195312 -35.082031 22.09375 -35.1875 Z M 30.125 -34.953125 L 30.640625 -34.953125 L 30.640625 -35.109375 L 30.125 -35.109375 Z M 30.953125 -33.75 C 30.953125 -34 30.800781 -34.125 30.5 -34.125 L 30.421875 -33.90625 L 30.5 -33.75 Z M 24.359375 -25.421875 C 24.160156 -27.035156 23.988281 -28.25 23.84375 -29.0625 C 23.4375 -31.175781 23.109375 -32.765625 22.859375 -33.828125 L 19.140625 -21.640625 L 24.828125 -21.796875 Z M 21.109375 -32.765625 L 21.265625 -32.6875 L 21.484375 -33.296875 L 21.34375 -33.375 Z M 28.453125 -32.765625 L 28.609375 -32.84375 L 28.453125 -33 L 28.21875 -32.921875 Z M 19 -28.375 C 19.144531 -28.476562 19.304688 -28.640625 19.484375 -28.859375 C 19.660156 -29.085938 19.773438 -29.28125 19.828125 -29.4375 L 19.984375 -30.046875 L 20.734375 -31.625 L 20.359375 -31.78125 L 19.984375 -31.484375 C 19.773438 -31.273438 19.644531 -31.171875 19.59375 -31.171875 C 19.34375 -30.210938 19.21875 -29.757812 19.21875 -29.8125 C 19.070312 -29.457031 18.972656 -29.28125 18.921875 -29.28125 C 18.921875 -29.1875 18.84375 -29.085938 18.6875 -28.984375 C 18.59375 -28.878906 18.519531 -28.703125 18.46875 -28.453125 L 17.9375 -26.78125 L 17.625 -25.734375 C 17.476562 -25.273438 17.253906 -24.867188 16.953125 -24.515625 C 16.648438 -24.160156 16.457031 -23.859375 16.375 -23.609375 C 16.300781 -23.359375 16.265625 -23.207031 16.265625 -23.15625 C 16.171875 -22.957031 16.125 -22.726562 16.125 -22.46875 C 16.070312 -22.164062 15.921875 -21.816406 15.671875 -21.421875 C 15.460938 -21.015625 15.332031 -20.707031 15.28125 -20.5 C 15.28125 -20.15625 15.332031 -19.984375 15.4375 -19.984375 C 15.59375 -19.929688 15.71875 -19.929688 15.8125 -19.984375 C 15.8125 -19.984375 15.890625 -20.054688 16.046875 -20.203125 C 16.242188 -20.660156 16.394531 -21.085938 16.5 -21.484375 C 16.550781 -21.941406 16.726562 -22.347656 17.03125 -22.703125 C 17.03125 -22.847656 17.179688 -23.070312 17.484375 -23.375 L 17.78125 -24.21875 C 17.882812 -24.363281 18.035156 -24.765625 18.234375 -25.421875 C 18.441406 -26.078125 18.695312 -26.757812 19 -27.46875 Z M 29.4375 -30.125 C 29.4375 -30.125 29.445312 -30.132812 29.46875 -30.15625 C 29.5 -30.175781 29.515625 -30.1875 29.515625 -30.1875 L 28.984375 -30.265625 L 28.984375 -29.96875 L 29.4375 -29.96875 Z M 30.953125 -29.4375 L 30.5 -29.59375 L 30.5 -29.4375 L 30.953125 -29.28125 Z M 27.3125 -29.0625 C 27.363281 -28.957031 27.441406 -28.90625 27.546875 -28.90625 C 27.648438 -28.90625 27.703125 -28.957031 27.703125 -29.0625 Z M 31.25 -26.40625 C 31.5 -26.40625 31.625 -26.507812 31.625 -26.71875 Z M 26.40625 -26.1875 C 26.40625 -26.238281 26.359375 -26.3125 26.265625 -26.40625 L 25.953125 -26.484375 L 25.953125 -26.1875 Z M 29.140625 -25.421875 C 29.085938 -25.828125 28.78125 -26.082031 28.21875 -26.1875 C 28.070312 -26.132812 28 -25.984375 28 -25.734375 L 28.453125 -25.734375 C 28.203125 -25.578125 28.175781 -25.398438 28.375 -25.203125 L 29.0625 -25.203125 L 29.0625 -25.421875 Z M 31.09375 -25.875 C 31.40625 -25.875 31.5625 -25.925781 31.5625 -26.03125 C 31.507812 -26.03125 31.46875 -26.039062 31.4375 -26.0625 C 31.414062 -26.09375 31.40625 -26.132812 31.40625 -26.1875 L 31.25 -26.1875 C 31.144531 -26.1875 31.09375 -26.132812 31.09375 -26.03125 Z M 30.125 -25.875 C 30.21875 -25.78125 30.289062 -25.734375 30.34375 -25.734375 L 30.5 -25.953125 C 30.5 -26.003906 30.347656 -26.03125 30.046875 -26.03125 Z M 31.09375 -25.046875 C 31.300781 -24.941406 31.457031 -24.890625 31.5625 -24.890625 C 31.8125 -24.890625 32.0625 -24.96875 32.3125 -25.125 C 32.113281 -25.320312 31.910156 -25.421875 31.703125 -25.421875 L 31.09375 -25.421875 Z M 29.0625 -24.140625 C 29.257812 -24.140625 29.382812 -24.113281 29.4375 -24.0625 L 29.890625 -24.0625 L 29.890625 -24.4375 L 29.65625 -24.515625 C 29.613281 -24.566406 29.539062 -24.59375 29.4375 -24.59375 C 29.1875 -24.488281 29.0625 -24.335938 29.0625 -24.140625 Z M 26.03125 -24.359375 L 26.03125 -24.21875 L 26.640625 -24.21875 L 26.640625 -24.359375 Z M 32.6875 -24.0625 C 32.632812 -24.257812 32.5625 -24.359375 32.46875 -24.359375 L 31.703125 -24.359375 C 31.453125 -24.160156 31.25 -24.023438 31.09375 -23.953125 C 30.945312 -23.878906 30.875 -23.816406 30.875 -23.765625 C 30.875 -23.554688 31.101562 -23.101562 31.5625 -22.40625 L 32.609375 -22.40625 L 32.921875 -22.46875 C 32.765625 -22.726562 32.585938 -22.859375 32.390625 -22.859375 C 32.179688 -22.859375 31.925781 -23.007812 31.625 -23.3125 C 31.976562 -23.40625 32.179688 -23.503906 32.234375 -23.609375 C 32.285156 -23.765625 32.4375 -23.914062 32.6875 -24.0625 Z M 14.21875 -24.140625 L 14.078125 -23.453125 C 14.078125 -23.253906 14.148438 -23.101562 14.296875 -23 C 14.453125 -23.25 14.53125 -23.453125 14.53125 -23.609375 L 14.53125 -24.140625 Z M 29.203125 -23.765625 L 29.140625 -23.90625 L 28.609375 -23.90625 L 28.609375 -23.609375 L 28.984375 -23.3125 L 28.984375 -23.375 L 29.140625 -23.453125 L 29.28125 -23.453125 Z M 30.125 -23.375 C 30.125 -23.375 30.109375 -23.382812 30.078125 -23.40625 C 30.054688 -23.4375 30.046875 -23.453125 30.046875 -23.453125 L 29.890625 -23.453125 L 30.046875 -22.546875 C 30.191406 -22.753906 30.289062 -23.007812 30.34375 -23.3125 Z M 28.296875 -23 C 28.203125 -23.050781 28.085938 -23.0625 27.953125 -23.03125 C 27.828125 -23.007812 27.742188 -23 27.703125 -23 L 27.921875 -22.625 C 28.023438 -22.675781 28.175781 -22.703125 28.375 -22.703125 L 28.90625 -22.625 C 29.007812 -22.625 29.125 -22.660156 29.25 -22.734375 C 29.375 -22.816406 29.4375 -22.90625 29.4375 -23 Z M 27.546875 -22.171875 L 27.46875 -21.9375 L 27.625 -21.875 L 27.703125 -22.171875 Z M 28.609375 -21.109375 C 28.648438 -21.160156 28.671875 -21.238281 28.671875 -21.34375 L 28.21875 -21.421875 L 28.078125 -21.265625 L 28 -21.109375 L 28.53125 -20.96875 C 28.53125 -21.0625 28.554688 -21.109375 28.609375 -21.109375 Z M 27.390625 -21.109375 C 27.597656 -21.109375 27.648438 -21.160156 27.546875 -21.265625 Z M 31.625 -20.28125 C 31.625 -20.332031 31.550781 -20.429688 31.40625 -20.578125 L 31.171875 -20.5 C 31.117188 -20.5 31.09375 -20.476562 31.09375 -20.4375 L 31.5625 -20.28125 Z M 30.953125 -19.21875 C 30.847656 -19.320312 30.796875 -19.472656 30.796875 -19.671875 C 30.691406 -19.878906 30.640625 -20.03125 30.640625 -20.125 C 30.191406 -20.425781 29.789062 -20.550781 29.4375 -20.5 C 29.4375 -20.40625 29.507812 -20.359375 29.65625 -20.359375 C 29.863281 -20.304688 30.039062 -20.078125 30.1875 -19.671875 L 30.1875 -19.21875 Z M 26.9375 -19.984375 L 26.9375 -19.671875 L 27.171875 -19.671875 L 27.171875 -19.984375 Z M 34.046875 -19.0625 L 34.046875 -19.140625 L 33.59375 -19.21875 L 33.59375 -19.0625 Z M 28.609375 -18.6875 L 28.90625 -18.6875 L 28.90625 -19.0625 L 28.609375 -19.0625 Z M 26.9375 -18.390625 L 26.9375 -18.546875 L 26.71875 -18.546875 L 26.71875 -18.390625 Z M 24.0625 -18.15625 L 24.0625 -18.015625 L 24.4375 -18.015625 L 24.4375 -18.15625 Z M 26.03125 -16.953125 C 26.082031 -17.003906 26.109375 -17.128906 26.109375 -17.328125 C 26.003906 -17.328125 25.828125 -17.253906 25.578125 -17.109375 L 25.875 -17.109375 Z M 28.53125 -16.796875 C 28.28125 -16.546875 28.15625 -16.421875 28.15625 -16.421875 C 28.457031 -16.265625 28.707031 -16.1875 28.90625 -16.1875 C 29.257812 -16.445312 29.4375 -16.648438 29.4375 -16.796875 C 29.4375 -16.847656 29.359375 -16.953125 29.203125 -17.109375 C 29.054688 -17.109375 28.984375 -17.15625 28.984375 -17.25 Z M 30.125 -14.6875 L 30.5 -14.6875 L 30.5 -14.828125 L 30.125 -14.828125 Z M 29.140625 -14.6875 C 29.140625 -14.425781 29.289062 -14.222656 29.59375 -14.078125 L 29.59375 -14.6875 Z M 32.078125 -14.15625 C 32.078125 -14.050781 32.140625 -13.910156 32.265625 -13.734375 C 32.398438 -13.554688 32.566406 -13.46875 32.765625 -13.46875 C 33.015625 -13.46875 33.164062 -13.492188 33.21875 -13.546875 C 33.21875 -13.546875 33.367188 -13.570312 33.671875 -13.625 C 33.617188 -13.71875 33.546875 -13.765625 33.453125 -13.765625 L 33.140625 -14 C 33.085938 -14.050781 33.0625 -14.28125 33.0625 -14.6875 C 33.019531 -14.476562 32.894531 -14.375 32.6875 -14.375 Z M 15.140625 -14.078125 L 15.140625 -13.703125 L 15.96875 -13.703125 L 15.96875 -14.078125 Z M 14.15625 -12.640625 C 14.050781 -12.835938 14 -12.988281 14 -13.09375 C 13.5 -13.34375 13.195312 -13.46875 13.09375 -13.46875 C 12.84375 -13.46875 12.648438 -13.390625 12.515625 -13.234375 C 12.390625 -13.085938 12.328125 -12.960938 12.328125 -12.859375 C 12.328125 -12.710938 12.425781 -12.550781 12.625 -12.375 C 12.832031 -12.195312 13.0625 -12.109375 13.3125 -12.109375 C 13.414062 -12.109375 13.492188 -12.132812 13.546875 -12.1875 L 14.296875 -12.1875 Z M 26.9375 -13.46875 L 26.9375 -13.171875 L 27.171875 -13.171875 L 27.171875 -13.46875 Z M 35.484375 -13.25 L 35.484375 -13.390625 L 35.1875 -13.390625 L 35.1875 -13.25 Z M 27.765625 -13.171875 C 27.972656 -13.117188 28.078125 -13.039062 28.078125 -12.9375 L 28.828125 -12.9375 L 28.828125 -13.171875 Z M 24.0625 -13.09375 L 23.84375 -13.015625 L 23.90625 -12.859375 L 24.140625 -12.9375 Z M 36.703125 -2.71875 C 36.847656 -2.71875 36.972656 -2.769531 37.078125 -2.875 L 36.78125 -4.6875 L 36.46875 -6.5 L 36.171875 -6.890625 L 36.015625 -7.265625 C 36.015625 -7.410156 36.140625 -7.585938 36.390625 -7.796875 C 35.941406 -8.046875 35.742188 -8.269531 35.796875 -8.46875 C 35.890625 -8.769531 35.9375 -8.972656 35.9375 -9.078125 C 35.9375 -9.378906 35.835938 -9.707031 35.640625 -10.0625 C 35.492188 -10.3125 35.421875 -10.488281 35.421875 -10.59375 C 35.421875 -10.789062 35.492188 -10.890625 35.640625 -10.890625 C 35.691406 -10.890625 35.71875 -10.96875 35.71875 -11.125 C 35.71875 -11.320312 35.640625 -11.570312 35.484375 -11.875 L 34.953125 -11.421875 L 34.4375 -11.046875 L 34.203125 -11.203125 L 34.203125 -11.953125 C 34.203125 -12.203125 34.429688 -12.328125 34.890625 -12.328125 L 35.1875 -12.109375 L 35.1875 -12.71875 C 35.03125 -12.8125 34.828125 -12.894531 34.578125 -12.96875 C 34.328125 -13.050781 34.148438 -13.09375 34.046875 -13.09375 C 33.796875 -13.09375 33.492188 -13.003906 33.140625 -12.828125 C 32.785156 -12.648438 32.609375 -12.460938 32.609375 -12.265625 C 32.609375 -12.210938 32.660156 -12.132812 32.765625 -12.03125 L 33.0625 -11.8125 C 32.914062 -11.65625 32.914062 -11.476562 33.0625 -11.28125 L 33.375 -11.046875 C 33.425781 -11.046875 33.460938 -11.019531 33.484375 -10.96875 C 33.503906 -10.914062 33.515625 -10.890625 33.515625 -10.890625 C 33.367188 -10.796875 33.195312 -10.75 33 -10.75 C 32.539062 -10.75 32.3125 -10.617188 32.3125 -10.359375 C 32.207031 -10.015625 32.15625 -9.84375 32.15625 -9.84375 C 32.257812 -9.882812 32.375 -9.878906 32.5 -9.828125 C 32.625 -9.785156 32.660156 -9.710938 32.609375 -9.609375 C 32.609375 -9.503906 32.5625 -9.453125 32.46875 -9.453125 C 32.414062 -9.453125 32.390625 -9.429688 32.390625 -9.390625 C 32.390625 -9.285156 32.363281 -9.207031 32.3125 -9.15625 L 32.15625 -8.859375 L 32.15625 -8.171875 C 32.207031 -8.117188 32.472656 -7.988281 32.953125 -7.78125 C 33.429688 -7.582031 33.445312 -7.382812 33 -7.1875 C 33.144531 -7.132812 33.445312 -7.109375 33.90625 -7.109375 C 34.050781 -7.109375 34.175781 -7.132812 34.28125 -7.1875 L 34.734375 -7.1875 L 34.734375 -6.125 L 34.65625 -6.125 L 34.65625 -6.046875 L 34.578125 -6.046875 L 34.8125 -5.828125 C 34.957031 -5.671875 35.03125 -5.59375 35.03125 -5.59375 C 35.03125 -5.5 35.082031 -5.453125 35.1875 -5.453125 C 35.1875 -5.453125 35.265625 -5.375 35.421875 -5.21875 L 35.484375 -4.546875 C 35.585938 -4.285156 35.765625 -4.082031 36.015625 -3.9375 C 36.015625 -3.832031 35.988281 -3.753906 35.9375 -3.703125 L 35.9375 -3.5625 C 35.9375 -3.457031 36.035156 -3.289062 36.234375 -3.0625 C 36.441406 -2.832031 36.597656 -2.71875 36.703125 -2.71875 Z M 8.171875 -11.8125 C 8.328125 -11.957031 8.253906 -12.054688 7.953125 -12.109375 L 7.953125 -11.953125 Z M 11.421875 -10.59375 C 11.523438 -10.695312 11.5 -10.820312 11.34375 -10.96875 C 11.25 -10.875 11.203125 -10.75 11.203125 -10.59375 C 11.203125 -10.539062 11.25 -10.515625 11.34375 -10.515625 C 11.394531 -10.515625 11.421875 -10.539062 11.421875 -10.59375 Z M 31.5625 -9.84375 C 31.601562 -9.84375 31.625 -9.914062 31.625 -10.0625 L 31.09375 -10.0625 C 31.09375 -9.914062 31.117188 -9.84375 31.171875 -9.84375 C 31.171875 -9.84375 31.25 -9.765625 31.40625 -9.609375 C 31.40625 -9.660156 31.414062 -9.695312 31.4375 -9.71875 C 31.46875 -9.75 31.507812 -9.789062 31.5625 -9.84375 Z M 9.609375 -9.234375 L 9.765625 -9.3125 L 9.765625 -9.6875 C 9.765625 -9.832031 9.613281 -9.90625 9.3125 -9.90625 L 9.15625 -9.84375 C 9.15625 -9.84375 9.140625 -9.828125 9.109375 -9.796875 C 9.085938 -9.773438 9.078125 -9.765625 9.078125 -9.765625 L 9.078125 -9.453125 Z M 28 -9.84375 L 28 -9.53125 L 28.53125 -9.53125 L 28.53125 -9.84375 Z M 29.890625 -8.921875 C 29.890625 -9.078125 29.828125 -9.164062 29.703125 -9.1875 C 29.578125 -9.21875 29.488281 -9.234375 29.4375 -9.234375 L 29.4375 -8.921875 Z M 9.3125 -8.015625 C 9.3125 -8.066406 9.347656 -8.117188 9.421875 -8.171875 C 9.492188 -8.222656 9.554688 -8.273438 9.609375 -8.328125 L 10.140625 -8.46875 L 10.140625 -8.78125 C 10.035156 -8.875 9.957031 -8.921875 9.90625 -8.921875 L 9.609375 -9.15625 C 9.410156 -8.695312 9.007812 -8.46875 8.40625 -8.46875 C 8.40625 -8.375 8.476562 -8.25 8.625 -8.09375 C 8.78125 -7.945312 8.929688 -7.875 9.078125 -7.875 C 9.128906 -7.875 9.207031 -7.921875 9.3125 -8.015625 Z M 28.984375 -8.40625 C 28.773438 -8.445312 28.648438 -8.492188 28.609375 -8.546875 L 28.671875 -8.015625 L 29.4375 -8.171875 Z M 12.328125 -6.5 C 12.429688 -6.550781 12.484375 -6.65625 12.484375 -6.8125 L 12.328125 -6.96875 C 12.234375 -6.96875 12.1875 -6.941406 12.1875 -6.890625 L 12.03125 -6.890625 L 11.734375 -6.8125 L 12.03125 -6.578125 Z M 9.15625 -6.046875 C 9.101562 -6.046875 9.023438 -6.082031 8.921875 -6.15625 C 8.828125 -6.238281 8.726562 -6.304688 8.625 -6.359375 C 8.375 -6.359375 8.25 -6.253906 8.25 -6.046875 C 8.300781 -6.003906 8.453125 -6.003906 8.703125 -6.046875 Z M 10.0625 -5.75 C 10.21875 -5.90625 10.316406 -5.984375 10.359375 -5.984375 C 10.359375 -6.179688 10.257812 -6.304688 10.0625 -6.359375 C 9.757812 -6.203125 9.609375 -6.097656 9.609375 -6.046875 Z M 30.34375 -5.75 C 30.34375 -5.851562 30.242188 -6.003906 30.046875 -6.203125 L 29.65625 -5.984375 L 29.515625 -5.75 Z M 31.09375 -2.1875 C 31.09375 -2.1875 31.101562 -2.195312 31.125 -2.21875 C 31.15625 -2.25 31.171875 -2.265625 31.171875 -2.265625 C 31.023438 -2.566406 30.953125 -2.820312 30.953125 -3.03125 L 30.1875 -3.03125 C 30.289062 -2.820312 30.414062 -2.628906 30.5625 -2.453125 C 30.71875 -2.273438 30.875 -2.140625 31.03125 -2.046875 Z M 31.09375 -2.1875" transform="translate(205.61 207.086)"/></g></g></g><g fill="#FFDE59"><g><g><path d="M 11.953125 -10.828125 C 9.628906 -11.679688 7.257812 -12.835938 4.84375 -14.296875 C 4.59375 -14.453125 4.34375 -14.53125 4.09375 -14.53125 C 3.4375 -14.53125 2.976562 -14.226562 2.71875 -13.625 L -0.609375 -6.96875 C -0.753906 -6.65625 -0.828125 -6.375 -0.828125 -6.125 C -0.828125 -5.625 -0.550781 -5.222656 0 -4.921875 C 5.09375 -2.140625 9.332031 -0.578125 12.71875 -0.234375 C 14.125 -0.128906 15.179688 -0.078125 15.890625 -0.078125 C 18.921875 -0.078125 21.671875 -0.554688 24.140625 -1.515625 C 26.460938 -2.421875 28.328125 -3.90625 29.734375 -5.96875 C 31.148438 -8.039062 32.132812 -10.515625 32.6875 -13.390625 L 32.6875 -13.46875 C 32.738281 -13.820312 32.765625 -14.378906 32.765625 -15.140625 C 32.765625 -20.734375 29.632812 -25.421875 23.375 -29.203125 L 21.03125 -30.640625 C 19.875 -31.347656 18.867188 -32.132812 18.015625 -33 C 16.597656 -34.257812 15.890625 -35.71875 15.890625 -37.375 C 15.890625 -38.382812 16.140625 -39.367188 16.640625 -40.328125 C 17.253906 -41.890625 18.289062 -42.546875 19.75 -42.296875 L 19.828125 -42.296875 C 20.378906 -42.242188 20.734375 -41.765625 20.890625 -40.859375 C 21.035156 -38.992188 21.109375 -37.203125 21.109375 -35.484375 C 21.109375 -34.484375 21.613281 -33.984375 22.625 -33.984375 L 31.40625 -33.984375 C 32.414062 -33.984375 32.921875 -34.460938 32.921875 -35.421875 C 33.015625 -37.035156 33.0625 -38.421875 33.0625 -39.578125 C 33.0625 -40.585938 33.015625 -41.492188 32.921875 -42.296875 C 32.710938 -44.773438 32.054688 -46.71875 30.953125 -48.125 C 28.734375 -50.851562 25.25 -52.21875 20.5 -52.21875 C 19.195312 -52.21875 17.9375 -52.140625 16.71875 -51.984375 C 11.175781 -51.328125 7.140625 -48.78125 4.609375 -44.34375 C 2.796875 -41.3125 1.890625 -38.179688 1.890625 -34.953125 C 1.890625 -33.648438 2.039062 -32.316406 2.34375 -30.953125 C 2.851562 -28.828125 3.785156 -27.132812 5.140625 -25.875 C 5.140625 -25.875 5.148438 -25.859375 5.171875 -25.828125 C 5.203125 -25.804688 5.21875 -25.796875 5.21875 -25.796875 C 7.6875 -23.734375 9.175781 -22.578125 9.6875 -22.328125 L 9.84375 -22.25 L 11.34375 -21.34375 C 13.914062 -19.78125 15.582031 -18.691406 16.34375 -18.078125 C 17.90625 -16.921875 18.6875 -15.460938 18.6875 -13.703125 C 18.6875 -12.585938 18.34375 -11.726562 17.65625 -11.125 C 16.976562 -10.519531 16.085938 -10.21875 14.984375 -10.21875 C 14.078125 -10.21875 13.066406 -10.421875 11.953125 -10.828125 Z M 24.21875 -43.359375 L 24.515625 -43.359375 L 24.515625 -43.203125 L 24.21875 -43.203125 Z M 26.1875 -40.78125 C 26.132812 -40.738281 26.066406 -40.71875 25.984375 -40.71875 C 25.910156 -40.71875 25.898438 -40.765625 25.953125 -40.859375 C 25.953125 -40.859375 25.960938 -40.867188 25.984375 -40.890625 C 26.015625 -40.921875 26.03125 -40.9375 26.03125 -40.9375 L 26.109375 -41.09375 C 26.109375 -41.09375 26.117188 -41.078125 26.140625 -41.046875 C 26.171875 -41.023438 26.1875 -41.015625 26.1875 -41.015625 L 26.328125 -40.9375 Z M 24.515625 -37.765625 C 24.515625 -37.660156 24.488281 -37.609375 24.4375 -37.609375 L 24.0625 -37.609375 C 24.0625 -37.804688 24.1875 -37.90625 24.4375 -37.90625 Z M 22.703125 -24.59375 C 22.804688 -24.488281 22.859375 -24.363281 22.859375 -24.21875 L 22.25 -24.21875 C 22.25 -24.21875 22.222656 -24.304688 22.171875 -24.484375 C 22.117188 -24.660156 22.144531 -24.875 22.25 -25.125 L 22.703125 -25.125 C 22.753906 -25.070312 22.78125 -24.945312 22.78125 -24.75 Z M 19.453125 -24.59375 L 19.453125 -24.890625 L 20.125 -24.890625 L 20.125 -24.59375 Z M 23.609375 -24.140625 L 23.453125 -24.0625 L 23.453125 -23.984375 L 22.859375 -23.6875 C 22.648438 -23.988281 22.546875 -24.140625 22.546875 -24.140625 C 22.648438 -24.191406 22.800781 -24.21875 23 -24.21875 L 23.3125 -24.21875 Z M 21.484375 -21.5625 C 21.585938 -21.46875 21.640625 -21.367188 21.640625 -21.265625 L 21.484375 -21.1875 L 21.34375 -21.265625 L 21.1875 -21.265625 L 21.1875 -21.796875 L 21.34375 -21.640625 Z M 25.578125 -20.4375 L 25.421875 -20.359375 L 24.96875 -20.359375 C 24.96875 -20.554688 25.117188 -20.734375 25.421875 -20.890625 L 25.734375 -20.578125 L 25.734375 -20.4375 Z M 24.4375 -19.21875 L 24.4375 -19.453125 L 25.125 -19.375 L 25.125 -19.0625 Z M 28.609375 -17.78125 C 28.648438 -17.78125 28.671875 -17.726562 28.671875 -17.625 C 28.671875 -17.320312 28.519531 -17.171875 28.21875 -17.171875 C 27.914062 -17.171875 27.71875 -17.300781 27.625 -17.5625 L 27.765625 -17.9375 L 28.453125 -17.9375 C 28.453125 -17.882812 28.476562 -17.859375 28.53125 -17.859375 Z M 25.203125 -17.484375 L 24.890625 -17.625 L 25.125 -17.859375 L 25.421875 -17.78125 Z M 26.328125 -15.671875 C 26.328125 -15.566406 26.40625 -15.515625 26.5625 -15.515625 C 26.5625 -15.410156 26.535156 -15.359375 26.484375 -15.359375 L 26.484375 -15.203125 C 26.429688 -15.203125 26.40625 -15.179688 26.40625 -15.140625 L 25.875 -15.140625 L 25.796875 -15.203125 L 25.734375 -15.203125 L 25.578125 -15.28125 L 25.734375 -15.8125 L 26.03125 -15.8125 Z M 29.4375 -15.4375 L 29.65625 -15.359375 L 29.4375 -15.203125 L 29.28125 -15.140625 C 29.132812 -14.984375 29.007812 -14.90625 28.90625 -14.90625 L 28.90625 -15.203125 C 28.851562 -15.304688 28.878906 -15.410156 28.984375 -15.515625 L 29.28125 -15.515625 Z M 27.09375 -14.078125 C 26.882812 -14.078125 26.71875 -14.125 26.59375 -14.21875 C 26.46875 -14.320312 26.429688 -14.453125 26.484375 -14.609375 C 26.535156 -14.609375 26.609375 -14.617188 26.703125 -14.640625 C 26.804688 -14.671875 26.960938 -14.6875 27.171875 -14.6875 L 27.3125 -14.75 C 27.363281 -14.800781 27.46875 -14.828125 27.625 -14.828125 L 27.703125 -14.453125 L 27.390625 -14.21875 Z M 26.71875 -12.859375 C 27.113281 -12.460938 27.3125 -12.238281 27.3125 -12.1875 C 27.3125 -12.082031 27.285156 -12.003906 27.234375 -11.953125 L 27.234375 -11.8125 L 27.09375 -11.8125 L 26.9375 -11.734375 L 26.71875 -11.734375 C 26.5625 -11.734375 26.429688 -11.78125 26.328125 -11.875 L 26.109375 -11.875 C 26.109375 -11.875 26.019531 -11.882812 25.84375 -11.90625 C 25.664062 -11.9375 25.425781 -11.976562 25.125 -12.03125 C 25.019531 -12.132812 24.96875 -12.210938 24.96875 -12.265625 L 24.890625 -12.328125 L 24.890625 -12.640625 L 25.125 -12.640625 C 25.375 -12.640625 25.578125 -12.613281 25.734375 -12.5625 C 25.828125 -12.507812 25.953125 -12.484375 26.109375 -12.484375 L 26.1875 -12.484375 C 26.28125 -12.484375 26.351562 -12.507812 26.40625 -12.5625 L 26.5625 -12.640625 C 26.5625 -12.691406 26.613281 -12.765625 26.71875 -12.859375 Z M 28.984375 -12.265625 L 28.984375 -12.109375 L 28.375 -12.109375 C 28.53125 -12.253906 28.609375 -12.40625 28.609375 -12.5625 L 29.140625 -12.5625 Z M 28.15625 -11.578125 L 28.15625 -12.03125 L 28.53125 -12.03125 L 28.53125 -11.578125 Z M 26.484375 -11.203125 C 26.484375 -11.097656 26.359375 -10.972656 26.109375 -10.828125 L 25.578125 -10.515625 L 25.28125 -10.515625 C 24.976562 -10.515625 24.773438 -10.566406 24.671875 -10.671875 L 24.671875 -10.828125 C 24.671875 -10.972656 24.820312 -11.125 25.125 -11.28125 C 25.269531 -11.28125 25.367188 -11.300781 25.421875 -11.34375 C 25.671875 -11.5 25.773438 -11.550781 25.734375 -11.5 L 26.484375 -11.5 Z M 28.671875 -10.671875 C 28.828125 -10.515625 28.90625 -10.410156 28.90625 -10.359375 C 28.90625 -10.109375 28.78125 -9.984375 28.53125 -9.984375 L 28.21875 -9.765625 C 28.019531 -10.015625 27.921875 -10.210938 27.921875 -10.359375 C 27.921875 -10.671875 28.046875 -10.847656 28.296875 -10.890625 Z M 26.5625 -10.0625 C 26.3125 -10.007812 26.035156 -10.007812 25.734375 -10.0625 L 25.734375 -10.359375 L 26.03125 -10.59375 L 26.484375 -10.59375 C 26.535156 -10.59375 26.5625 -10.515625 26.5625 -10.359375 Z M 11.125 -9.984375 L 11.125 -10.21875 L 11.578125 -10.21875 L 11.578125 -9.984375 Z M 24.96875 -9 L 24.828125 -8.859375 L 24.671875 -8.859375 C 24.671875 -8.804688 24.617188 -8.78125 24.515625 -8.78125 L 24.515625 -9.078125 C 24.515625 -9.179688 24.566406 -9.285156 24.671875 -9.390625 C 24.722656 -9.390625 24.757812 -9.375 24.78125 -9.34375 C 24.8125 -9.320312 24.828125 -9.3125 24.828125 -9.3125 L 24.890625 -9.15625 Z M 22.40625 -8.09375 C 22.5 -8.039062 22.546875 -7.890625 22.546875 -7.640625 C 22.347656 -7.640625 22.144531 -7.691406 21.9375 -7.796875 C 21.988281 -7.796875 22.023438 -7.804688 22.046875 -7.828125 C 22.078125 -7.859375 22.09375 -7.875 22.09375 -7.875 C 22.09375 -7.925781 22.144531 -7.953125 22.25 -7.953125 L 22.25 -8.015625 C 22.25 -8.066406 22.300781 -8.09375 22.40625 -8.09375 Z M 26.5625 -7.953125 C 26.613281 -7.898438 26.640625 -7.820312 26.640625 -7.71875 C 26.484375 -7.71875 26.179688 -7.796875 25.734375 -7.953125 L 26.5625 -8.09375 Z M 12.640625 -7.640625 L 12.328125 -7.796875 L 12.5625 -8.015625 L 12.859375 -7.953125 Z M 22.859375 -7.1875 C 23.054688 -7.1875 23.179688 -7.160156 23.234375 -7.109375 L 23.609375 -7.03125 C 23.609375 -6.78125 23.40625 -6.65625 23 -6.65625 C 23 -6.707031 22.898438 -6.734375 22.703125 -6.734375 Z M 21.34375 -6.65625 L 21.34375 -7.03125 L 21.640625 -7.03125 L 21.640625 -6.65625 Z M 14.453125 -5.296875 L 14.453125 -5.53125 L 14.984375 -5.53125 L 14.984375 -5.296875 Z M 22.703125 -5.0625 C 22.597656 -5.113281 22.546875 -5.191406 22.546875 -5.296875 C 22.546875 -5.453125 22.597656 -5.53125 22.703125 -5.53125 L 23.3125 -5.53125 Z M 22.703125 -5.0625" transform="translate(251.163 207.086)"/></g></g></g><g fill="#FFDE59"><g><g><path d="M 41.84375 -1.515625 C 41.84375 -1.109375 41.703125 -0.753906 41.421875 -0.453125 C 41.148438 -0.148438 40.785156 0 40.328125 0 L 28.90625 0 C 28 0 27.492188 -0.453125 27.390625 -1.359375 L 26.640625 -10.59375 L 15.203125 -8.328125 L 13.546875 -1.359375 C 13.347656 -0.609375 12.84375 -0.234375 12.03125 -0.234375 L 0.828125 -0.453125 C 0.328125 -0.453125 -0.0546875 -0.640625 -0.328125 -1.015625 C -0.609375 -1.398438 -0.703125 -1.867188 -0.609375 -2.421875 C 0.648438 -7.160156 2.390625 -13.113281 4.609375 -20.28125 C 5.773438 -24.0625 7.316406 -28.375 9.234375 -33.21875 C 10.992188 -37.707031 13.363281 -43.429688 16.34375 -50.390625 C 16.539062 -50.847656 16.921875 -51.15625 17.484375 -51.3125 L 19.0625 -51.609375 C 20.582031 -51.910156 21.742188 -52.113281 22.546875 -52.21875 C 23.003906 -52.3125 23.765625 -52.359375 24.828125 -52.359375 C 25.785156 -52.359375 26.488281 -52.335938 26.9375 -52.296875 C 29.363281 -52.085938 31.304688 -50.34375 32.765625 -47.0625 C 33.222656 -45.851562 33.753906 -44.113281 34.359375 -41.84375 C 35.015625 -39.125 35.617188 -36.347656 36.171875 -33.515625 L 41.84375 -1.8125 Z M 18.15625 -49.03125 L 18.15625 -49.484375 L 17.859375 -49.484375 L 17.859375 -49.03125 Z M 27.3125 -47.0625 L 27.3125 -47.671875 L 27.09375 -47.671875 L 27.09375 -47.0625 Z M 26.71875 -45.78125 C 26.8125 -45.976562 26.859375 -46.179688 26.859375 -46.390625 C 26.609375 -46.390625 26.484375 -46.414062 26.484375 -46.46875 L 26.484375 -46.015625 Z M 17.9375 -46.078125 L 17.9375 -45.09375 C 17.9375 -45.300781 18.0625 -45.609375 18.3125 -46.015625 L 18.078125 -46.015625 Z M 27.921875 -45.859375 C 28.023438 -45.960938 28.101562 -46.015625 28.15625 -46.015625 L 27.3125 -46.078125 L 27.3125 -45.78125 C 27.363281 -45.726562 27.390625 -45.648438 27.390625 -45.546875 L 27.703125 -45.546875 C 27.703125 -45.597656 27.773438 -45.703125 27.921875 -45.859375 Z M 27.3125 -45.546875 L 27.3125 -45.703125 L 27.171875 -46.015625 L 27.171875 -45.78125 Z M 28.75 -45.171875 C 28.550781 -45.171875 28.375 -44.992188 28.21875 -44.640625 L 28.375 -44.5 L 29.359375 -44.5 L 29.65625 -44.640625 C 29.40625 -44.796875 29.28125 -44.945312 29.28125 -45.09375 L 29.4375 -45.328125 C 29.132812 -45.222656 28.90625 -45.171875 28.75 -45.171875 Z M 28.53125 -43.140625 C 28.320312 -43.140625 28.21875 -43.035156 28.21875 -42.828125 C 28.320312 -42.722656 28.453125 -42.671875 28.609375 -42.671875 C 28.648438 -42.671875 28.773438 -42.625 28.984375 -42.53125 C 29.085938 -42.625 29.140625 -42.695312 29.140625 -42.75 L 29.203125 -42.90625 C 28.953125 -43.0625 28.726562 -43.140625 28.53125 -43.140625 Z M 22.40625 -42.453125 L 22.46875 -42.671875 L 22.40625 -42.671875 L 22.25 -42.53125 Z M 23.234375 -41.6875 L 23.609375 -41.6875 C 23.660156 -41.644531 23.710938 -41.632812 23.765625 -41.65625 C 23.816406 -41.675781 23.863281 -41.6875 23.90625 -41.6875 C 23.90625 -41.894531 23.859375 -42.050781 23.765625 -42.15625 C 23.710938 -42.15625 23.660156 -42.140625 23.609375 -42.109375 C 23.554688 -42.085938 23.503906 -42.078125 23.453125 -42.078125 L 23.15625 -42.078125 Z M 29.8125 -40.71875 C 29.8125 -40.664062 29.6875 -40.585938 29.4375 -40.484375 C 29.332031 -40.484375 29.28125 -40.40625 29.28125 -40.25 C 29.28125 -40.207031 29.332031 -40.132812 29.4375 -40.03125 L 29.890625 -40.03125 C 30.085938 -40.132812 30.1875 -40.234375 30.1875 -40.328125 C 30.1875 -40.585938 30.0625 -40.71875 29.8125 -40.71875 Z M 13.171875 -37.765625 C 13.222656 -37.859375 13.160156 -37.828125 12.984375 -37.671875 C 12.804688 -37.523438 12.71875 -37.425781 12.71875 -37.375 C 12.71875 -37.226562 12.78125 -37.050781 12.90625 -36.84375 C 13.03125 -36.644531 13.117188 -36.546875 13.171875 -36.546875 C 13.222656 -36.703125 13.25 -36.90625 13.25 -37.15625 C 13.25 -37.457031 13.222656 -37.660156 13.171875 -37.765625 Z M 18.390625 -36.625 C 18.390625 -36.625 18.398438 -36.632812 18.421875 -36.65625 C 18.453125 -36.6875 18.492188 -36.703125 18.546875 -36.703125 C 18.691406 -36.648438 18.789062 -36.675781 18.84375 -36.78125 L 18.46875 -36.921875 C 18.414062 -36.921875 18.390625 -36.875 18.390625 -36.78125 Z M 13.09375 -34.65625 L 13.390625 -34.65625 L 13.390625 -35.5625 L 13.09375 -35.484375 Z M 21.9375 -35.1875 C 21.539062 -35.1875 21.238281 -35.007812 21.03125 -34.65625 C 21.132812 -34.300781 21.257812 -34.097656 21.40625 -34.046875 C 21.5625 -34.003906 21.789062 -34.054688 22.09375 -34.203125 L 22.328125 -34.8125 L 22.25 -34.953125 C 22.25 -35.003906 22.195312 -35.082031 22.09375 -35.1875 Z M 30.125 -34.953125 L 30.640625 -34.953125 L 30.640625 -35.109375 L 30.125 -35.109375 Z M 30.953125 -33.75 C 30.953125 -34 30.800781 -34.125 30.5 -34.125 L 30.421875 -33.90625 L 30.5 -33.75 Z M 24.359375 -25.421875 C 24.160156 -27.035156 23.988281 -28.25 23.84375 -29.0625 C 23.4375 -31.175781 23.109375 -32.765625 22.859375 -33.828125 L 19.140625 -21.640625 L 24.828125 -21.796875 Z M 21.109375 -32.765625 L 21.265625 -32.6875 L 21.484375 -33.296875 L 21.34375 -33.375 Z M 28.453125 -32.765625 L 28.609375 -32.84375 L 28.453125 -33 L 28.21875 -32.921875 Z M 19 -28.375 C 19.144531 -28.476562 19.304688 -28.640625 19.484375 -28.859375 C 19.660156 -29.085938 19.773438 -29.28125 19.828125 -29.4375 L 19.984375 -30.046875 L 20.734375 -31.625 L 20.359375 -31.78125 L 19.984375 -31.484375 C 19.773438 -31.273438 19.644531 -31.171875 19.59375 -31.171875 C 19.34375 -30.210938 19.21875 -29.757812 19.21875 -29.8125 C 19.070312 -29.457031 18.972656 -29.28125 18.921875 -29.28125 C 18.921875 -29.1875 18.84375 -29.085938 18.6875 -28.984375 C 18.59375 -28.878906 18.519531 -28.703125 18.46875 -28.453125 L 17.9375 -26.78125 L 17.625 -25.734375 C 17.476562 -25.273438 17.253906 -24.867188 16.953125 -24.515625 C 16.648438 -24.160156 16.457031 -23.859375 16.375 -23.609375 C 16.300781 -23.359375 16.265625 -23.207031 16.265625 -23.15625 C 16.171875 -22.957031 16.125 -22.726562 16.125 -22.46875 C 16.070312 -22.164062 15.921875 -21.816406 15.671875 -21.421875 C 15.460938 -21.015625 15.332031 -20.707031 15.28125 -20.5 C 15.28125 -20.15625 15.332031 -19.984375 15.4375 -19.984375 C 15.59375 -19.929688 15.71875 -19.929688 15.8125 -19.984375 C 15.8125 -19.984375 15.890625 -20.054688 16.046875 -20.203125 C 16.242188 -20.660156 16.394531 -21.085938 16.5 -21.484375 C 16.550781 -21.941406 16.726562 -22.347656 17.03125 -22.703125 C 17.03125 -22.847656 17.179688 -23.070312 17.484375 -23.375 L 17.78125 -24.21875 C 17.882812 -24.363281 18.035156 -24.765625 18.234375 -25.421875 C 18.441406 -26.078125 18.695312 -26.757812 19 -27.46875 Z M 29.4375 -30.125 C 29.4375 -30.125 29.445312 -30.132812 29.46875 -30.15625 C 29.5 -30.175781 29.515625 -30.1875 29.515625 -30.1875 L 28.984375 -30.265625 L 28.984375 -29.96875 L 29.4375 -29.96875 Z M 30.953125 -29.4375 L 30.5 -29.59375 L 30.5 -29.4375 L 30.953125 -29.28125 Z M 27.3125 -29.0625 C 27.363281 -28.957031 27.441406 -28.90625 27.546875 -28.90625 C 27.648438 -28.90625 27.703125 -28.957031 27.703125 -29.0625 Z M 31.25 -26.40625 C 31.5 -26.40625 31.625 -26.507812 31.625 -26.71875 Z M 26.40625 -26.1875 C 26.40625 -26.238281 26.359375 -26.3125 26.265625 -26.40625 L 25.953125 -26.484375 L 25.953125 -26.1875 Z M 29.140625 -25.421875 C 29.085938 -25.828125 28.78125 -26.082031 28.21875 -26.1875 C 28.070312 -26.132812 28 -25.984375 28 -25.734375 L 28.453125 -25.734375 C 28.203125 -25.578125 28.175781 -25.398438 28.375 -25.203125 L 29.0625 -25.203125 L 29.0625 -25.421875 Z M 31.09375 -25.875 C 31.40625 -25.875 31.5625 -25.925781 31.5625 -26.03125 C 31.507812 -26.03125 31.46875 -26.039062 31.4375 -26.0625 C 31.414062 -26.09375 31.40625 -26.132812 31.40625 -26.1875 L 31.25 -26.1875 C 31.144531 -26.1875 31.09375 -26.132812 31.09375 -26.03125 Z M 30.125 -25.875 C 30.21875 -25.78125 30.289062 -25.734375 30.34375 -25.734375 L 30.5 -25.953125 C 30.5 -26.003906 30.347656 -26.03125 30.046875 -26.03125 Z M 31.09375 -25.046875 C 31.300781 -24.941406 31.457031 -24.890625 31.5625 -24.890625 C 31.8125 -24.890625 32.0625 -24.96875 32.3125 -25.125 C 32.113281 -25.320312 31.910156 -25.421875 31.703125 -25.421875 L 31.09375 -25.421875 Z M 29.0625 -24.140625 C 29.257812 -24.140625 29.382812 -24.113281 29.4375 -24.0625 L 29.890625 -24.0625 L 29.890625 -24.4375 L 29.65625 -24.515625 C 29.613281 -24.566406 29.539062 -24.59375 29.4375 -24.59375 C 29.1875 -24.488281 29.0625 -24.335938 29.0625 -24.140625 Z M 26.03125 -24.359375 L 26.03125 -24.21875 L 26.640625 -24.21875 L 26.640625 -24.359375 Z M 32.6875 -24.0625 C 32.632812 -24.257812 32.5625 -24.359375 32.46875 -24.359375 L 31.703125 -24.359375 C 31.453125 -24.160156 31.25 -24.023438 31.09375 -23.953125 C 30.945312 -23.878906 30.875 -23.816406 30.875 -23.765625 C 30.875 -23.554688 31.101562 -23.101562 31.5625 -22.40625 L 32.609375 -22.40625 L 32.921875 -22.46875 C 32.765625 -22.726562 32.585938 -22.859375 32.390625 -22.859375 C 32.179688 -22.859375 31.925781 -23.007812 31.625 -23.3125 C 31.976562 -23.40625 32.179688 -23.503906 32.234375 -23.609375 C 32.285156 -23.765625 32.4375 -23.914062 32.6875 -24.0625 Z M 14.21875 -24.140625 L 14.078125 -23.453125 C 14.078125 -23.253906 14.148438 -23.101562 14.296875 -23 C 14.453125 -23.25 14.53125 -23.453125 14.53125 -23.609375 L 14.53125 -24.140625 Z M 29.203125 -23.765625 L 29.140625 -23.90625 L 28.609375 -23.90625 L 28.609375 -23.609375 L 28.984375 -23.3125 L 28.984375 -23.375 L 29.140625 -23.453125 L 29.28125 -23.453125 Z M 30.125 -23.375 C 30.125 -23.375 30.109375 -23.382812 30.078125 -23.40625 C 30.054688 -23.4375 30.046875 -23.453125 30.046875 -23.453125 L 29.890625 -23.453125 L 30.046875 -22.546875 C 30.191406 -22.753906 30.289062 -23.007812 30.34375 -23.3125 Z M 28.296875 -23 C 28.203125 -23.050781 28.085938 -23.0625 27.953125 -23.03125 C 27.828125 -23.007812 27.742188 -23 27.703125 -23 L 27.921875 -22.625 C 28.023438 -22.675781 28.175781 -22.703125 28.375 -22.703125 L 28.90625 -22.625 C 29.007812 -22.625 29.125 -22.660156 29.25 -22.734375 C 29.375 -22.816406 29.4375 -22.90625 29.4375 -23 Z M 27.546875 -22.171875 L 27.46875 -21.9375 L 27.625 -21.875 L 27.703125 -22.171875 Z M 28.609375 -21.109375 C 28.648438 -21.160156 28.671875 -21.238281 28.671875 -21.34375 L 28.21875 -21.421875 L 28.078125 -21.265625 L 28 -21.109375 L 28.53125 -20.96875 C 28.53125 -21.0625 28.554688 -21.109375 28.609375 -21.109375 Z M 27.390625 -21.109375 C 27.597656 -21.109375 27.648438 -21.160156 27.546875 -21.265625 Z M 31.625 -20.28125 C 31.625 -20.332031 31.550781 -20.429688 31.40625 -20.578125 L 31.171875 -20.5 C 31.117188 -20.5 31.09375 -20.476562 31.09375 -20.4375 L 31.5625 -20.28125 Z M 30.953125 -19.21875 C 30.847656 -19.320312 30.796875 -19.472656 30.796875 -19.671875 C 30.691406 -19.878906 30.640625 -20.03125 30.640625 -20.125 C 30.191406 -20.425781 29.789062 -20.550781 29.4375 -20.5 C 29.4375 -20.40625 29.507812 -20.359375 29.65625 -20.359375 C 29.863281 -20.304688 30.039062 -20.078125 30.1875 -19.671875 L 30.1875 -19.21875 Z M 26.9375 -19.984375 L 26.9375 -19.671875 L 27.171875 -19.671875 L 27.171875 -19.984375 Z M 34.046875 -19.0625 L 34.046875 -19.140625 L 33.59375 -19.21875 L 33.59375 -19.0625 Z M 28.609375 -18.6875 L 28.90625 -18.6875 L 28.90625 -19.0625 L 28.609375 -19.0625 Z M 26.9375 -18.390625 L 26.9375 -18.546875 L 26.71875 -18.546875 L 26.71875 -18.390625 Z M 24.0625 -18.15625 L 24.0625 -18.015625 L 24.4375 -18.015625 L 24.4375 -18.15625 Z M 26.03125 -16.953125 C 26.082031 -17.003906 26.109375 -17.128906 26.109375 -17.328125 C 26.003906 -17.328125 25.828125 -17.253906 25.578125 -17.109375 L 25.875 -17.109375 Z M 28.53125 -16.796875 C 28.28125 -16.546875 28.15625 -16.421875 28.15625 -16.421875 C 28.457031 -16.265625 28.707031 -16.1875 28.90625 -16.1875 C 29.257812 -16.445312 29.4375 -16.648438 29.4375 -16.796875 C 29.4375 -16.847656 29.359375 -16.953125 29.203125 -17.109375 C 29.054688 -17.109375 28.984375 -17.15625 28.984375 -17.25 Z M 30.125 -14.6875 L 30.5 -14.6875 L 30.5 -14.828125 L 30.125 -14.828125 Z M 29.140625 -14.6875 C 29.140625 -14.425781 29.289062 -14.222656 29.59375 -14.078125 L 29.59375 -14.6875 Z M 32.078125 -14.15625 C 32.078125 -14.050781 32.140625 -13.910156 32.265625 -13.734375 C 32.398438 -13.554688 32.566406 -13.46875 32.765625 -13.46875 C 33.015625 -13.46875 33.164062 -13.492188 33.21875 -13.546875 C 33.21875 -13.546875 33.367188 -13.570312 33.671875 -13.625 C 33.617188 -13.71875 33.546875 -13.765625 33.453125 -13.765625 L 33.140625 -14 C 33.085938 -14.050781 33.0625 -14.28125 33.0625 -14.6875 C 33.019531 -14.476562 32.894531 -14.375 32.6875 -14.375 Z M 15.140625 -14.078125 L 15.140625 -13.703125 L 15.96875 -13.703125 L 15.96875 -14.078125 Z M 14.15625 -12.640625 C 14.050781 -12.835938 14 -12.988281 14 -13.09375 C 13.5 -13.34375 13.195312 -13.46875 13.09375 -13.46875 C 12.84375 -13.46875 12.648438 -13.390625 12.515625 -13.234375 C 12.390625 -13.085938 12.328125 -12.960938 12.328125 -12.859375 C 12.328125 -12.710938 12.425781 -12.550781 12.625 -12.375 C 12.832031 -12.195312 13.0625 -12.109375 13.3125 -12.109375 C 13.414062 -12.109375 13.492188 -12.132812 13.546875 -12.1875 L 14.296875 -12.1875 Z M 26.9375 -13.46875 L 26.9375 -13.171875 L 27.171875 -13.171875 L 27.171875 -13.46875 Z M 35.484375 -13.25 L 35.484375 -13.390625 L 35.1875 -13.390625 L 35.1875 -13.25 Z M 27.765625 -13.171875 C 27.972656 -13.117188 28.078125 -13.039062 28.078125 -12.9375 L 28.828125 -12.9375 L 28.828125 -13.171875 Z M 24.0625 -13.09375 L 23.84375 -13.015625 L 23.90625 -12.859375 L 24.140625 -12.9375 Z M 36.703125 -2.71875 C 36.847656 -2.71875 36.972656 -2.769531 37.078125 -2.875 L 36.78125 -4.6875 L 36.46875 -6.5 L 36.171875 -6.890625 L 36.015625 -7.265625 C 36.015625 -7.410156 36.140625 -7.585938 36.390625 -7.796875 C 35.941406 -8.046875 35.742188 -8.269531 35.796875 -8.46875 C 35.890625 -8.769531 35.9375 -8.972656 35.9375 -9.078125 C 35.9375 -9.378906 35.835938 -9.707031 35.640625 -10.0625 C 35.492188 -10.3125 35.421875 -10.488281 35.421875 -10.59375 C 35.421875 -10.789062 35.492188 -10.890625 35.640625 -10.890625 C 35.691406 -10.890625 35.71875 -10.96875 35.71875 -11.125 C 35.71875 -11.320312 35.640625 -11.570312 35.484375 -11.875 L 34.953125 -11.421875 L 34.4375 -11.046875 L 34.203125 -11.203125 L 34.203125 -11.953125 C 34.203125 -12.203125 34.429688 -12.328125 34.890625 -12.328125 L 35.1875 -12.109375 L 35.1875 -12.71875 C 35.03125 -12.8125 34.828125 -12.894531 34.578125 -12.96875 C 34.328125 -13.050781 34.148438 -13.09375 34.046875 -13.09375 C 33.796875 -13.09375 33.492188 -13.003906 33.140625 -12.828125 C 32.785156 -12.648438 32.609375 -12.460938 32.609375 -12.265625 C 32.609375 -12.210938 32.660156 -12.132812 32.765625 -12.03125 L 33.0625 -11.8125 C 32.914062 -11.65625 32.914062 -11.476562 33.0625 -11.28125 L 33.375 -11.046875 C 33.425781 -11.046875 33.460938 -11.019531 33.484375 -10.96875 C 33.503906 -10.914062 33.515625 -10.890625 33.515625 -10.890625 C 33.367188 -10.796875 33.195312 -10.75 33 -10.75 C 32.539062 -10.75 32.3125 -10.617188 32.3125 -10.359375 C 32.207031 -10.015625 32.15625 -9.84375 32.15625 -9.84375 C 32.257812 -9.882812 32.375 -9.878906 32.5 -9.828125 C 32.625 -9.785156 32.660156 -9.710938 32.609375 -9.609375 C 32.609375 -9.503906 32.5625 -9.453125 32.46875 -9.453125 C 32.414062 -9.453125 32.390625 -9.429688 32.390625 -9.390625 C 32.390625 -9.285156 32.363281 -9.207031 32.3125 -9.15625 L 32.15625 -8.859375 L 32.15625 -8.171875 C 32.207031 -8.117188 32.472656 -7.988281 32.953125 -7.78125 C 33.429688 -7.582031 33.445312 -7.382812 33 -7.1875 C 33.144531 -7.132812 33.445312 -7.109375 33.90625 -7.109375 C 34.050781 -7.109375 34.175781 -7.132812 34.28125 -7.1875 L 34.734375 -7.1875 L 34.734375 -6.125 L 34.65625 -6.125 L 34.65625 -6.046875 L 34.578125 -6.046875 L 34.8125 -5.828125 C 34.957031 -5.671875 35.03125 -5.59375 35.03125 -5.59375 C 35.03125 -5.5 35.082031 -5.453125 35.1875 -5.453125 C 35.1875 -5.453125 35.265625 -5.375 35.421875 -5.21875 L 35.484375 -4.546875 C 35.585938 -4.285156 35.765625 -4.082031 36.015625 -3.9375 C 36.015625 -3.832031 35.988281 -3.753906 35.9375 -3.703125 L 35.9375 -3.5625 C 35.9375 -3.457031 36.035156 -3.289062 36.234375 -3.0625 C 36.441406 -2.832031 36.597656 -2.71875 36.703125 -2.71875 Z M 8.171875 -11.8125 C 8.328125 -11.957031 8.253906 -12.054688 7.953125 -12.109375 L 7.953125 -11.953125 Z M 11.421875 -10.59375 C 11.523438 -10.695312 11.5 -10.820312 11.34375 -10.96875 C 11.25 -10.875 11.203125 -10.75 11.203125 -10.59375 C 11.203125 -10.539062 11.25 -10.515625 11.34375 -10.515625 C 11.394531 -10.515625 11.421875 -10.539062 11.421875 -10.59375 Z M 31.5625 -9.84375 C 31.601562 -9.84375 31.625 -9.914062 31.625 -10.0625 L 31.09375 -10.0625 C 31.09375 -9.914062 31.117188 -9.84375 31.171875 -9.84375 C 31.171875 -9.84375 31.25 -9.765625 31.40625 -9.609375 C 31.40625 -9.660156 31.414062 -9.695312 31.4375 -9.71875 C 31.46875 -9.75 31.507812 -9.789062 31.5625 -9.84375 Z M 9.609375 -9.234375 L 9.765625 -9.3125 L 9.765625 -9.6875 C 9.765625 -9.832031 9.613281 -9.90625 9.3125 -9.90625 L 9.15625 -9.84375 C 9.15625 -9.84375 9.140625 -9.828125 9.109375 -9.796875 C 9.085938 -9.773438 9.078125 -9.765625 9.078125 -9.765625 L 9.078125 -9.453125 Z M 28 -9.84375 L 28 -9.53125 L 28.53125 -9.53125 L 28.53125 -9.84375 Z M 29.890625 -8.921875 C 29.890625 -9.078125 29.828125 -9.164062 29.703125 -9.1875 C 29.578125 -9.21875 29.488281 -9.234375 29.4375 -9.234375 L 29.4375 -8.921875 Z M 9.3125 -8.015625 C 9.3125 -8.066406 9.347656 -8.117188 9.421875 -8.171875 C 9.492188 -8.222656 9.554688 -8.273438 9.609375 -8.328125 L 10.140625 -8.46875 L 10.140625 -8.78125 C 10.035156 -8.875 9.957031 -8.921875 9.90625 -8.921875 L 9.609375 -9.15625 C 9.410156 -8.695312 9.007812 -8.46875 8.40625 -8.46875 C 8.40625 -8.375 8.476562 -8.25 8.625 -8.09375 C 8.78125 -7.945312 8.929688 -7.875 9.078125 -7.875 C 9.128906 -7.875 9.207031 -7.921875 9.3125 -8.015625 Z M 28.984375 -8.40625 C 28.773438 -8.445312 28.648438 -8.492188 28.609375 -8.546875 L 28.671875 -8.015625 L 29.4375 -8.171875 Z M 12.328125 -6.5 C 12.429688 -6.550781 12.484375 -6.65625 12.484375 -6.8125 L 12.328125 -6.96875 C 12.234375 -6.96875 12.1875 -6.941406 12.1875 -6.890625 L 12.03125 -6.890625 L 11.734375 -6.8125 L 12.03125 -6.578125 Z M 9.15625 -6.046875 C 9.101562 -6.046875 9.023438 -6.082031 8.921875 -6.15625 C 8.828125 -6.238281 8.726562 -6.304688 8.625 -6.359375 C 8.375 -6.359375 8.25 -6.253906 8.25 -6.046875 C 8.300781 -6.003906 8.453125 -6.003906 8.703125 -6.046875 Z M 10.0625 -5.75 C 10.21875 -5.90625 10.316406 -5.984375 10.359375 -5.984375 C 10.359375 -6.179688 10.257812 -6.304688 10.0625 -6.359375 C 9.757812 -6.203125 9.609375 -6.097656 9.609375 -6.046875 Z M 30.34375 -5.75 C 30.34375 -5.851562 30.242188 -6.003906 30.046875 -6.203125 L 29.65625 -5.984375 L 29.515625 -5.75 Z M 31.09375 -2.1875 C 31.09375 -2.1875 31.101562 -2.195312 31.125 -2.21875 C 31.15625 -2.25 31.171875 -2.265625 31.171875 -2.265625 C 31.023438 -2.566406 30.953125 -2.820312 30.953125 -3.03125 L 30.1875 -3.03125 C 30.289062 -2.820312 30.414062 -2.628906 30.5625 -2.453125 C 30.71875 -2.273438 30.875 -2.140625 31.03125 -2.046875 Z M 31.09375 -2.1875" transform="translate(287.408 207.086)"/></g></g></g><g fill="#004AAD"><g><g><path d="M 4.703125 -17.4375 C 6.035156 -17.4375 7.019531 -17.039062 7.65625 -16.25 C 8.289062 -15.457031 8.609375 -14.40625 8.609375 -13.09375 L 8.609375 -11.546875 L 6.78125 -11.546875 L 6.78125 -13.1875 C 6.78125 -13.976562 6.617188 -14.59375 6.296875 -15.03125 C 5.972656 -15.46875 5.460938 -15.6875 4.765625 -15.6875 C 4.066406 -15.6875 3.550781 -15.46875 3.21875 -15.03125 C 2.894531 -14.59375 2.734375 -13.976562 2.734375 -13.1875 L 2.734375 -4.0625 C 2.734375 -3.28125 2.894531 -2.671875 3.21875 -2.234375 C 3.550781 -1.796875 4.066406 -1.578125 4.765625 -1.578125 C 5.460938 -1.578125 5.972656 -1.796875 6.296875 -2.234375 C 6.617188 -2.671875 6.78125 -3.28125 6.78125 -4.0625 L 6.78125 -6.3125 L 8.609375 -6.3125 L 8.609375 -4.171875 C 8.609375 -2.847656 8.289062 -1.789062 7.65625 -1 C 7.019531 -0.21875 6.035156 0.171875 4.703125 0.171875 C 3.390625 0.171875 2.414062 -0.21875 1.78125 -1 C 1.15625 -1.789062 0.84375 -2.847656 0.84375 -4.171875 L 0.84375 -13.09375 C 0.84375 -13.75 0.921875 -14.34375 1.078125 -14.875 C 1.234375 -15.414062 1.46875 -15.875 1.78125 -16.25 C 2.101562 -16.625 2.503906 -16.914062 2.984375 -17.125 C 3.472656 -17.332031 4.046875 -17.4375 4.703125 -17.4375 Z M 4.703125 -17.4375" transform="translate(176.498 234.515)"/></g></g></g><g fill="#004AAD"><g><g><path d="M 2.9375 -3.46875 L 2.265625 0 L 0.5 0 L 3.796875 -17.265625 L 6.578125 -17.265625 L 9.890625 0 L 7.96875 0 L 7.296875 -3.46875 Z M 3.1875 -5.125 L 7.03125 -5.125 L 5.078125 -15.09375 Z M 3.1875 -5.125" transform="translate(185.867 234.515)"/></g></g></g><g fill="#004AAD"><g><g><path d="M 4.609375 -17.4375 C 5.921875 -17.4375 6.890625 -17.046875 7.515625 -16.265625 C 8.140625 -15.484375 8.453125 -14.429688 8.453125 -13.109375 L 8.453125 -12.65625 L 6.625 -12.65625 L 6.625 -13.21875 C 6.625 -14.007812 6.46875 -14.617188 6.15625 -15.046875 C 5.851562 -15.472656 5.351562 -15.6875 4.65625 -15.6875 C 3.96875 -15.6875 3.46875 -15.472656 3.15625 -15.046875 C 2.84375 -14.617188 2.6875 -14.015625 2.6875 -13.234375 C 2.6875 -12.597656 2.828125 -12.039062 3.109375 -11.5625 C 3.398438 -11.082031 3.757812 -10.640625 4.1875 -10.234375 C 4.613281 -9.835938 5.078125 -9.445312 5.578125 -9.0625 C 6.085938 -8.675781 6.554688 -8.25 6.984375 -7.78125 C 7.410156 -7.320312 7.765625 -6.800781 8.046875 -6.21875 C 8.335938 -5.632812 8.484375 -4.941406 8.484375 -4.140625 C 8.484375 -2.828125 8.164062 -1.78125 7.53125 -1 C 6.894531 -0.21875 5.914062 0.171875 4.59375 0.171875 C 3.257812 0.171875 2.28125 -0.21875 1.65625 -1 C 1.03125 -1.78125 0.71875 -2.828125 0.71875 -4.140625 L 0.71875 -5.125 L 2.515625 -5.125 L 2.515625 -4.046875 C 2.515625 -3.253906 2.675781 -2.644531 3 -2.21875 C 3.332031 -1.789062 3.84375 -1.578125 4.53125 -1.578125 C 5.226562 -1.578125 5.738281 -1.789062 6.0625 -2.21875 C 6.394531 -2.644531 6.5625 -3.253906 6.5625 -4.046875 C 6.5625 -4.679688 6.414062 -5.234375 6.125 -5.703125 C 5.84375 -6.171875 5.484375 -6.609375 5.046875 -7.015625 C 4.617188 -7.421875 4.160156 -7.816406 3.671875 -8.203125 C 3.179688 -8.585938 2.722656 -9.007812 2.296875 -9.46875 C 1.867188 -9.925781 1.507812 -10.445312 1.21875 -11.03125 C 0.925781 -11.613281 0.78125 -12.304688 0.78125 -13.109375 C 0.78125 -14.441406 1.09375 -15.492188 1.71875 -16.265625 C 2.34375 -17.046875 3.304688 -17.4375 4.609375 -17.4375 Z M 4.609375 -17.4375" transform="translate(196.272 234.515)"/></g></g></g><g fill="#004AAD"><g><g><path d="M 2.9375 -3.46875 L 2.265625 0 L 0.5 0 L 3.796875 -17.265625 L 6.578125 -17.265625 L 9.890625 0 L 7.96875 0 L 7.296875 -3.46875 Z M 3.1875 -5.125 L 7.03125 -5.125 L 5.078125 -15.09375 Z M 3.1875 -5.125" transform="translate(205.444 234.515)"/></g></g></g><g fill="#004AAD"><g><g><path d="M 0.90625 -9.5 L 5.625 -9.5 L 5.625 -7.765625 L 0.90625 -7.765625 Z M 0.90625 -9.5" transform="translate(215.85 234.515)"/></g></g></g><g fill="#004AAD"><g><g><path d="M 4.703125 -17.4375 C 6.035156 -17.4375 7.019531 -17.039062 7.65625 -16.25 C 8.289062 -15.457031 8.609375 -14.40625 8.609375 -13.09375 L 8.609375 -11.546875 L 6.78125 -11.546875 L 6.78125 -13.1875 C 6.78125 -13.976562 6.617188 -14.59375 6.296875 -15.03125 C 5.972656 -15.46875 5.460938 -15.6875 4.765625 -15.6875 C 4.066406 -15.6875 3.550781 -15.46875 3.21875 -15.03125 C 2.894531 -14.59375 2.734375 -13.976562 2.734375 -13.1875 L 2.734375 -4.0625 C 2.734375 -3.28125 2.894531 -2.671875 3.21875 -2.234375 C 3.550781 -1.796875 4.066406 -1.578125 4.765625 -1.578125 C 5.460938 -1.578125 5.972656 -1.796875 6.296875 -2.234375 C 6.617188 -2.671875 6.78125 -3.28125 6.78125 -4.0625 L 6.78125 -6.3125 L 8.609375 -6.3125 L 8.609375 -4.171875 C 8.609375 -2.847656 8.289062 -1.789062 7.65625 -1 C 7.019531 -0.21875 6.035156 0.171875 4.703125 0.171875 C 3.390625 0.171875 2.414062 -0.21875 1.78125 -1 C 1.15625 -1.789062 0.84375 -2.847656 0.84375 -4.171875 L 0.84375 -13.09375 C 0.84375 -13.75 0.921875 -14.34375 1.078125 -14.875 C 1.234375 -15.414062 1.46875 -15.875 1.78125 -16.25 C 2.101562 -16.625 2.503906 -16.914062 2.984375 -17.125 C 3.472656 -17.332031 4.046875 -17.4375 4.703125 -17.4375 Z M 4.703125 -17.4375" transform="translate(222.383 234.515)"/></g></g></g><g fill="#004AAD"><g><g><path d="M 0.84375 -13.09375 C 0.84375 -14.425781 1.164062 -15.484375 1.8125 -16.265625 C 2.457031 -17.046875 3.445312 -17.4375 4.78125 -17.4375 C 6.113281 -17.4375 7.109375 -17.046875 7.765625 -16.265625 C 8.421875 -15.484375 8.75 -14.425781 8.75 -13.09375 L 8.75 -4.171875 C 8.75 -2.847656 8.421875 -1.789062 7.765625 -1 C 7.109375 -0.21875 6.113281 0.171875 4.78125 0.171875 C 3.445312 0.171875 2.457031 -0.21875 1.8125 -1 C 1.164062 -1.789062 0.84375 -2.847656 0.84375 -4.171875 Z M 2.734375 -4.0625 C 2.734375 -3.28125 2.898438 -2.671875 3.234375 -2.234375 C 3.578125 -1.796875 4.09375 -1.578125 4.78125 -1.578125 C 5.488281 -1.578125 6.003906 -1.796875 6.328125 -2.234375 C 6.660156 -2.671875 6.828125 -3.28125 6.828125 -4.0625 L 6.828125 -13.1875 C 6.828125 -13.976562 6.660156 -14.59375 6.328125 -15.03125 C 6.003906 -15.46875 5.488281 -15.6875 4.78125 -15.6875 C 4.09375 -15.6875 3.578125 -15.46875 3.234375 -15.03125 C 2.898438 -14.59375 2.734375 -13.976562 2.734375 -13.1875 Z M 2.734375 -4.0625" transform="translate(231.753 234.515)"/></g></g></g><g fill="#004AAD"><g><g><path d="M 2.6875 0 L 0.96875 0 L 0.96875 -17.265625 L 3.40625 -17.265625 L 7.390625 -4.78125 L 7.390625 -17.265625 L 9.09375 -17.265625 L 9.09375 0 L 7.09375 0 L 2.6875 -13.953125 Z M 2.6875 0" transform="translate(241.344 234.515)"/></g></g></g><g fill="#004AAD"><g><g><path d="M 2.6875 0 L 0.96875 0 L 0.96875 -17.265625 L 3.40625 -17.265625 L 7.390625 -4.78125 L 7.390625 -17.265625 L 9.09375 -17.265625 L 9.09375 0 L 7.09375 0 L 2.6875 -13.953125 Z M 2.6875 0" transform="translate(251.428 234.515)"/></g></g></g><g fill="#004AAD"><g><g><path d="M 7.125 -9.609375 L 7.125 -7.890625 L 2.90625 -7.890625 L 2.90625 -1.75 L 8.09375 -1.75 L 8.09375 0 L 0.984375 0 L 0.984375 -17.265625 L 8.09375 -17.265625 L 8.09375 -15.515625 L 2.90625 -15.515625 L 2.90625 -9.609375 Z M 7.125 -9.609375" transform="translate(261.513 234.515)"/></g></g></g><g fill="#004AAD"><g><g><path d="M 4.703125 -17.4375 C 6.035156 -17.4375 7.019531 -17.039062 7.65625 -16.25 C 8.289062 -15.457031 8.609375 -14.40625 8.609375 -13.09375 L 8.609375 -11.546875 L 6.78125 -11.546875 L 6.78125 -13.1875 C 6.78125 -13.976562 6.617188 -14.59375 6.296875 -15.03125 C 5.972656 -15.46875 5.460938 -15.6875 4.765625 -15.6875 C 4.066406 -15.6875 3.550781 -15.46875 3.21875 -15.03125 C 2.894531 -14.59375 2.734375 -13.976562 2.734375 -13.1875 L 2.734375 -4.0625 C 2.734375 -3.28125 2.894531 -2.671875 3.21875 -2.234375 C 3.550781 -1.796875 4.066406 -1.578125 4.765625 -1.578125 C 5.460938 -1.578125 5.972656 -1.796875 6.296875 -2.234375 C 6.617188 -2.671875 6.78125 -3.28125 6.78125 -4.0625 L 6.78125 -6.3125 L 8.609375 -6.3125 L 8.609375 -4.171875 C 8.609375 -2.847656 8.289062 -1.789062 7.65625 -1 C 7.019531 -0.21875 6.035156 0.171875 4.703125 0.171875 C 3.390625 0.171875 2.414062 -0.21875 1.78125 -1 C 1.15625 -1.789062 0.84375 -2.847656 0.84375 -4.171875 L 0.84375 -13.09375 C 0.84375 -13.75 0.921875 -14.34375 1.078125 -14.875 C 1.234375 -15.414062 1.46875 -15.875 1.78125 -16.25 C 2.101562 -16.625 2.503906 -16.914062 2.984375 -17.125 C 3.472656 -17.332031 4.046875 -17.4375 4.703125 -17.4375 Z M 4.703125 -17.4375" transform="translate(270.39 234.515)"/></g></g></g><g fill="#004AAD"><g><g><path d="M 3.46875 0 L 3.46875 -15.515625 L 0.296875 -15.515625 L 0.296875 -17.265625 L 8.5625 -17.265625 L 8.5625 -15.515625 L 5.375 -15.515625 L 5.375 0 Z M 3.46875 0" transform="translate(279.759 234.515)"/></g></g></g><g fill="#004AAD"><g><g><path d="M 2.828125 -2.390625 L 2.828125 0 L 0.984375 0 L 0.984375 -2.390625 Z M 2.828125 -2.390625" transform="translate(288.635 234.515)"/></g></g></g><g fill="#004AAD"><g><g><path d="M 0.84375 -13.09375 C 0.84375 -14.425781 1.164062 -15.484375 1.8125 -16.265625 C 2.457031 -17.046875 3.445312 -17.4375 4.78125 -17.4375 C 6.113281 -17.4375 7.109375 -17.046875 7.765625 -16.265625 C 8.421875 -15.484375 8.75 -14.425781 8.75 -13.09375 L 8.75 -4.171875 C 8.75 -2.847656 8.421875 -1.789062 7.765625 -1 C 7.109375 -0.21875 6.113281 0.171875 4.78125 0.171875 C 3.445312 0.171875 2.457031 -0.21875 1.8125 -1 C 1.164062 -1.789062 0.84375 -2.847656 0.84375 -4.171875 Z M 2.734375 -4.0625 C 2.734375 -3.28125 2.898438 -2.671875 3.234375 -2.234375 C 3.578125 -1.796875 4.09375 -1.578125 4.78125 -1.578125 C 5.488281 -1.578125 6.003906 -1.796875 6.328125 -2.234375 C 6.660156 -2.671875 6.828125 -3.28125 6.828125 -4.0625 L 6.828125 -13.1875 C 6.828125 -13.976562 6.660156 -14.59375 6.328125 -15.03125 C 6.003906 -15.46875 5.488281 -15.6875 4.78125 -15.6875 C 4.09375 -15.6875 3.578125 -15.46875 3.234375 -15.03125 C 2.898438 -14.59375 2.734375 -13.976562 2.734375 -13.1875 Z M 2.734375 -4.0625" transform="translate(292.457 234.515)"/></g></g></g><g fill="#004AAD"><g><g><path d="M 4.828125 -17.265625 C 6.191406 -17.265625 7.171875 -16.925781 7.765625 -16.25 C 8.367188 -15.570312 8.671875 -14.59375 8.671875 -13.3125 L 8.671875 -11.90625 C 8.671875 -10.957031 8.5 -10.1875 8.15625 -9.59375 C 7.8125 -9 7.269531 -8.585938 6.53125 -8.359375 C 7.320312 -8.128906 7.878906 -7.707031 8.203125 -7.09375 C 8.535156 -6.476562 8.703125 -5.703125 8.703125 -4.765625 L 8.703125 -2.078125 C 8.703125 -1.691406 8.71875 -1.320312 8.75 -0.96875 C 8.78125 -0.613281 8.878906 -0.289062 9.046875 0 L 7.09375 0 C 6.976562 -0.25 6.894531 -0.515625 6.84375 -0.796875 C 6.800781 -1.085938 6.78125 -1.519531 6.78125 -2.09375 L 6.78125 -4.8125 C 6.78125 -5.78125 6.5625 -6.445312 6.125 -6.8125 C 5.6875 -7.1875 5.066406 -7.375 4.265625 -7.375 L 2.90625 -7.375 L 2.90625 0 L 0.984375 0 L 0.984375 -17.265625 Z M 4.34375 -9.125 C 5.113281 -9.125 5.710938 -9.28125 6.140625 -9.59375 C 6.566406 -9.914062 6.78125 -10.546875 6.78125 -11.484375 L 6.78125 -13.140625 C 6.78125 -13.929688 6.628906 -14.523438 6.328125 -14.921875 C 6.023438 -15.316406 5.507812 -15.515625 4.78125 -15.515625 L 2.90625 -15.515625 L 2.90625 -9.125 Z M 4.34375 -9.125" transform="translate(302.048 234.515)"/></g></g></g><g fill="#004AAD"><g><g><path d="M 4.703125 -17.4375 C 6.035156 -17.4375 7.019531 -17.039062 7.65625 -16.25 C 8.289062 -15.457031 8.609375 -14.40625 8.609375 -13.09375 L 8.609375 -11.609375 L 6.78125 -11.609375 L 6.78125 -13.1875 C 6.78125 -13.976562 6.617188 -14.59375 6.296875 -15.03125 C 5.972656 -15.46875 5.460938 -15.6875 4.765625 -15.6875 C 4.066406 -15.6875 3.550781 -15.46875 3.21875 -15.03125 C 2.894531 -14.59375 2.734375 -13.976562 2.734375 -13.1875 L 2.734375 -4.0625 C 2.734375 -3.28125 2.894531 -2.671875 3.21875 -2.234375 C 3.550781 -1.796875 4.066406 -1.578125 4.765625 -1.578125 C 5.460938 -1.578125 5.972656 -1.796875 6.296875 -2.234375 C 6.617188 -2.671875 6.78125 -3.28125 6.78125 -4.0625 L 6.78125 -7.515625 L 5 -7.515625 L 5 -9.25 L 8.609375 -9.25 L 8.609375 -4.171875 C 8.609375 -2.847656 8.289062 -1.789062 7.65625 -1 C 7.019531 -0.21875 6.035156 0.171875 4.703125 0.171875 C 3.390625 0.171875 2.414062 -0.21875 1.78125 -1 C 1.15625 -1.789062 0.84375 -2.847656 0.84375 -4.171875 L 0.84375 -13.09375 C 0.84375 -13.75 0.921875 -14.34375 1.078125 -14.875 C 1.234375 -15.414062 1.46875 -15.875 1.78125 -16.25 C 2.101562 -16.625 2.503906 -16.914062 2.984375 -17.125 C 3.472656 -17.332031 4.046875 -17.4375 4.703125 -17.4375 Z M 4.703125 -17.4375" transform="translate(311.762 234.515)"/></g></g></g></svg>