<?xml version="1.0" encoding="UTF-8" standalone="no"?>
<svg
   xmlns:dc="http://purl.org/dc/elements/1.1/"
   xmlns:cc="http://creativecommons.org/ns#"
   xmlns:rdf="http://www.w3.org/1999/02/22-rdf-syntax-ns#"
   xmlns:svg="http://www.w3.org/2000/svg"
   xmlns="http://www.w3.org/2000/svg"
   xmlns:sodipodi="http://sodipodi.sourceforge.net/DTD/sodipodi-0.dtd"
   xmlns:inkscape="http://www.inkscape.org/namespaces/inkscape"
   width="375"
   viewBox="0 0 375 375"
   height="375"
   version="1.0"
   id="svg175"
   sodipodi:docname="logo_house.svg"
   inkscape:version="0.92.5 (2060ec1f9f, 2020-04-08)"
   inkscape:export-filename="/home/flip/Projects/disastersmediation/resources/img/logo/casa.png"
   inkscape:export-xdpi="779.65997"
   inkscape:export-ydpi="779.65997">
  <metadata
     id="metadata179">
    <rdf:RDF>
      <cc:Work
         rdf:about="">
        <dc:format>image/svg+xml</dc:format>
        <dc:type
           rdf:resource="http://purl.org/dc/dcmitype/StillImage" />
        <dc:title></dc:title>
      </cc:Work>
    </rdf:RDF>
  </metadata>
  <sodipodi:namedview
     pagecolor="#ffffff"
     bordercolor="#666666"
     borderopacity="1"
     objecttolerance="10"
     gridtolerance="10"
     guidetolerance="10"
     inkscape:pageopacity="0"
     inkscape:pageshadow="2"
     inkscape:window-width="1848"
     inkscape:window-height="1136"
     id="namedview177"
     showgrid="false"
     inkscape:zoom="1.7800235"
     inkscape:cx="130.05138"
     inkscape:cy="132.14569"
     inkscape:window-x="1672"
     inkscape:window-y="27"
     inkscape:window-maximized="1"
     inkscape:current-layer="svg175" />
  <defs
     id="defs5">
    <clipPath
       id="a">
      <path
         d="M 42.027344 132.019531 L 153.027344 132.019531 L 153.027344 243.019531 L 42.027344 243.019531 Z M 42.027344 132.019531"
         id="path2" />
    </clipPath>
  </defs>
  <path
     d="M -0.10720933,-0.98362687 H 147.64958 V 139.46989 H -0.10720933 Z"
     id="path9"
     inkscape:connector-curvature="0"
     style="fill:#38b6ff;stroke-width:0.32013085"
     inkscape:export-xdpi="27"
     inkscape:export-ydpi="27" />
  <g
     clip-path="url(#a)"
     id="g13"
     transform="translate(-22.47161,-120.78492)">
    <path
       d="m 152.05859,198.93359 -50.32031,-41.44922 c 3.40235,-3 6.63281,-6.18359 9.6836,-9.54296 0.84375,-1.10938 1.40625,-2.35157 1.67968,-3.71875 0.27735,-1.36719 0.24219,-2.72657 -0.10547,-4.07813 -0.38671,-1.51953 -1.08203,-2.87891 -2.09375,-4.08203 -1.01171,-1.19922 -2.23437,-2.11719 -3.66796,-2.75781 -0.77735,-0.33203 -1.58985,-0.54688 -2.42969,-0.64844 -0.83985,-0.10156 -1.67578,-0.0859 -2.51172,0.0469 -0.83594,0.13282 -1.64063,0.37891 -2.406251,0.73829 -0.765625,0.35546 -1.46875,0.8125 -2.109375,1.37109 -0.636719,-0.55469 -1.339844,-1.01172 -2.109375,-1.37109 -0.765625,-0.35547 -1.566407,-0.60157 -2.402344,-0.73438 -0.835937,-0.13281 -1.675781,-0.14844 -2.515625,-0.0469 -0.839844,0.10156 -1.648438,0.3164 -2.429688,0.64453 -1.433593,0.64062 -2.65625,1.55859 -3.664062,2.75781 -1.011719,1.20312 -1.710938,2.5625 -2.097656,4.08203 -0.347656,1.35156 -0.382813,2.71094 -0.105469,4.07813 0.277344,1.36718 0.839844,2.60937 1.683594,3.71875 3.050781,3.35937 6.277343,6.54296 9.683593,9.54296 L 43.5,198.93359 c -0.265625,0.21875 -0.480469,0.48047 -0.644531,0.78516 -0.160157,0.30469 -0.261719,0.625 -0.292969,0.96875 -0.03516,0.34375 0,0.67969 0.09766,1.00781 0.101563,0.33203 0.257813,0.62891 0.476563,0.89453 0.21875,0.26563 0.480469,0.48047 0.785156,0.64453 0.304687,0.16407 0.625,0.26172 0.96875,0.29297 0.34375,0.0352 0.679687,0.004 1.007813,-0.0977 0.332031,-0.0977 0.628906,-0.25782 0.894531,-0.47657 l 9.570312,-7.88671 v 45.33984 c -0.0039,0.34766 0.05859,0.67969 0.191407,1 0.128906,0.32031 0.316406,0.60156 0.558593,0.84766 0.242188,0.24218 0.523438,0.43359 0.84375,0.5664 0.320313,0.13281 0.652344,0.19922 0.996094,0.19922 h 25.160156 c 0.339844,0 0.671875,-0.0664 0.988281,-0.19922 0.316407,-0.13281 0.59375,-0.32031 0.839844,-0.5625 0.242188,-0.24219 0.425782,-0.51953 0.558594,-0.83594 0.132812,-0.3164 0.199219,-0.64843 0.199219,-0.98828 v -21.94922 c 0,-0.73046 0.07031,-1.44921 0.210937,-2.16406 0.144532,-0.71094 0.351563,-1.40625 0.632813,-2.07812 0.277343,-0.67188 0.617187,-1.3086 1.023437,-1.91407 0.402344,-0.60546 0.863282,-1.16406 1.378906,-1.67968 0.511719,-0.51563 1.074219,-0.97266 1.675782,-1.37891 0.605468,-0.40234 1.246094,-0.74609 1.917968,-1.02344 0.671876,-0.27734 1.363282,-0.48828 2.078126,-0.6289 0.714843,-0.14453 1.433593,-0.21485 2.160156,-0.21485 0.730468,0 1.449218,0.0703 2.164062,0.21485 0.71093,0.14062 1.40625,0.35156 2.07812,0.6289 0.67188,0.27735 1.3086,0.6211 1.91406,1.02344 0.60547,0.40625 1.16407,0.86328 1.67969,1.37891 0.51563,0.51562 0.97266,1.07422 1.37891,1.67968 0.40234,0.60547 0.74609,1.24219 1.02344,1.91407 0.27734,0.67187 0.48828,1.36718 0.6289,2.07812 0.14453,0.71485 0.21485,1.4336 0.21485,2.16406 v 21.92188 c 0,0.34375 0.0664,0.67187 0.19921,0.98828 0.12891,0.31641 0.31641,0.59766 0.5586,0.83984 0.24219,0.24219 0.52344,0.42969 0.83984,0.5625 0.31641,0.12891 0.64453,0.19532 0.98828,0.19532 h 25.15625 c 0.34375,0 0.67578,-0.0625 0.99219,-0.19532 0.31641,-0.13281 0.59766,-0.3164 0.83984,-0.5625 0.24219,-0.24218 0.42969,-0.51953 0.5625,-0.83593 0.13282,-0.31641 0.19922,-0.64844 0.19922,-0.99219 v -45.35938 l 9.56641,7.88672 c 0.26953,0.21875 0.5664,0.375 0.89453,0.47657 0.33203,0.0977 0.66797,0.13281 1.00781,0.0977 0.34375,-0.0352 0.66797,-0.13281 0.97266,-0.29297 0.30078,-0.16406 0.5625,-0.3789 0.78125,-0.64453 0.21875,-0.26562 0.3789,-0.5664 0.47656,-0.89453 0.10156,-0.32812 0.13281,-0.66406 0.10156,-1.00781 -0.0352,-0.34375 -0.13281,-0.66406 -0.29687,-0.96875 -0.16016,-0.30469 -0.375,-0.56641 -0.64063,-0.78516 z M 88.234375,144.77734 c -0.363281,-0.48828 -0.601563,-1.02734 -0.714844,-1.625 -0.117187,-0.59375 -0.09375,-1.18359 0.0625,-1.77343 0.199219,-0.75 0.550781,-1.42579 1.058594,-2.01563 0.507813,-0.58984 1.121094,-1.04297 1.835937,-1.35156 2.625,-1.20703 4.796876,1.76562 5.296876,2.00781 0.121093,0.14453 0.257812,0.27734 0.410156,0.39453 0.148437,0.11328 0.3125,0.21485 0.484375,0.29297 0.171875,0.082 0.351562,0.14453 0.535156,0.18359 0.1875,0.043 0.375,0.0625 0.566406,0.0625 0.1875,0 0.378907,-0.0195 0.5625,-0.0625 0.1875,-0.0391 0.363281,-0.10156 0.539063,-0.18359 0.171875,-0.0781 0.332031,-0.17969 0.484375,-0.29297 0.148437,-0.11719 0.285156,-0.25 0.40625,-0.39453 0.03125,-0.0312 2.726561,-3.1875 5.308591,-2.00781 0.71485,0.30859 1.32813,0.76172 1.83594,1.35156 0.50781,0.58984 0.85938,1.26563 1.05859,2.01563 0.15625,0.58593 0.17969,1.17968 0.0625,1.77343 -0.11328,0.59766 -0.34765,1.13672 -0.71093,1.625 -3.01953,3.26563 -6.19922,6.36719 -9.539066,9.3125 -3.339844,-2.9414 -6.519532,-6.04687 -9.542969,-9.3125 z m 45.777345,93.03907 h -19.97656 v -19.33204 c 0,-0.53515 -0.0234,-1.0664 -0.0781,-1.59375 -0.0508,-0.53125 -0.1289,-1.05468 -0.23437,-1.57812 -0.10547,-0.52344 -0.23438,-1.03906 -0.38672,-1.54688 -0.15625,-0.50781 -0.33594,-1.01171 -0.53906,-1.5 -0.20313,-0.49218 -0.42969,-0.97265 -0.6836,-1.44531 -0.25,-0.46875 -0.52344,-0.92187 -0.82031,-1.36719 -0.29297,-0.4414 -0.61328,-0.86718 -0.94922,-1.28125 -0.33984,-0.41015 -0.69531,-0.80468 -1.07031,-1.17968 -0.37891,-0.375 -0.77344,-0.73438 -1.1836,-1.07032 -0.41015,-0.33984 -0.83984,-0.65625 -1.28125,-0.94921 -0.4414,-0.29688 -0.89843,-0.57032 -1.36718,-0.82032 -0.46875,-0.25 -0.94922,-0.48047 -1.44141,-0.68359 -0.49219,-0.20313 -0.99219,-0.38281 -1.50391,-0.53516 -0.50781,-0.15625 -1.02343,-0.28515 -1.54687,-0.38672 -0.52344,-0.10546 -1.046876,-0.18359 -1.578126,-0.23437 -0.527344,-0.0547 -1.058594,-0.0781 -1.59375,-0.0781 -0.53125,0 -1.0625,0.0234 -1.59375,0.0781 -0.527344,0.0508 -1.054688,0.12891 -1.574219,0.23437 -0.523437,0.10157 -1.039063,0.23047 -1.550781,0.38672 -0.507813,0.15235 -1.007813,0.33203 -1.5,0.53516 -0.492188,0.20312 -0.972656,0.43359 -1.441406,0.68359 -0.46875,0.25 -0.925782,0.52344 -1.367188,0.82032 -0.445312,0.29296 -0.871094,0.60937 -1.28125,0.94921 -0.414062,0.33594 -0.808594,0.69532 -1.183594,1.07032 -0.375,0.375 -0.734375,0.76953 -1.070312,1.17968 -0.339844,0.41407 -0.65625,0.83985 -0.953125,1.28125 -0.292969,0.44532 -0.566407,0.89844 -0.820313,1.36719 -0.25,0.47266 -0.476562,0.95313 -0.679687,1.44531 -0.207031,0.48829 -0.382813,0.99219 -0.539063,1.5 -0.15625,0.50782 -0.285156,1.02344 -0.386718,1.54688 -0.105469,0.52344 -0.183594,1.04687 -0.238282,1.57812 -0.05078,0.52735 -0.07813,1.0586 -0.07813,1.59375 v 19.33204 H 61.539062 v -47.03125 l 36.238282,-29.85547 36.238276,29.85547 z m 0,0"
       id="path11"
       inkscape:connector-curvature="0"
       style="fill:#ffffff" />
  </g>
</svg>
